<?xml version="1.0" encoding="UTF-8" ?>
<!DOCTYPE svg PUBLIC "-//W3C//DTD SVG 1.1//EN" "http://www.w3.org/Graphics/SVG/1.1/DTD/svg11.dtd">
<svg width="1280pt" height="853pt" viewBox="0 0 1280 853" version="1.1" xmlns="http://www.w3.org/2000/svg">
<g id="#f9e8d7fc">
<path fill="#f9e8d7" opacity="1.00" d=" M 698.66 86.80 C 709.65 80.07 724.81 82.35 734.19 90.91 C 728.03 87.29 721.36 83.75 714.02 83.80 C 708.74 83.72 703.66 85.33 698.66 86.80 Z" />
<path fill="#f9e8d7" opacity="1.00" d=" M 693.28 91.08 C 692.31 89.33 695.46 86.92 696.94 88.28 C 695.94 89.48 694.73 90.49 693.28 91.08 Z" />
<path fill="#f9e8d7" opacity="1.00" d=" M 738.01 94.88 C 740.92 97.99 742.73 101.90 744.26 105.83 C 745.87 109.70 745.26 114.01 745.33 118.09 C 745.52 123.54 742.75 128.46 740.03 132.98 C 743.28 126.38 745.58 118.97 744.56 111.54 C 743.84 105.52 740.86 100.12 738.01 94.88 Z" />
<path fill="#f9e8d7" opacity="1.00" d=" M 680.99 113.73 C 681.66 110.03 682.42 106.32 683.98 102.88 C 683.04 107.04 682.29 111.25 681.62 115.47 C 668.67 111.32 654.74 111.56 641.64 114.90 C 648.62 111.32 656.73 111.41 664.38 111.48 C 670.02 111.38 675.38 113.41 680.99 113.73 Z" />
<path fill="#f9e8d7" opacity="1.00" d=" M 620.02 127.08 C 624.45 122.51 629.92 118.92 635.94 116.81 C 630.76 120.43 625.29 123.60 620.02 127.08 Z" />
<path fill="#f9e8d7" opacity="1.00" d=" M 603.76 171.26 C 600.86 159.08 604.10 145.60 611.88 135.83 C 609.10 141.33 606.07 146.80 604.59 152.83 C 603.09 158.85 603.52 165.12 603.76 171.26 Z" />
<path fill="#f9e8d7" opacity="1.00" d=" M 717.68 146.99 C 721.57 145.87 725.46 144.71 729.25 143.26 C 725.63 144.98 721.86 147.67 717.68 146.99 Z" />
<path fill="#f9e8d7" opacity="1.00" d=" M 209.02 245.87 C 209.87 249.35 210.80 252.82 211.82 256.26 C 210.84 257.10 209.90 257.99 209.00 258.92 C 209.95 254.60 209.33 250.22 209.02 245.87 Z" />
<path fill="#f9e8d7" opacity="1.00" d=" M 205.62 276.26 C 203.79 271.57 203.80 266.11 206.71 261.84 C 205.77 266.59 205.46 271.44 205.62 276.26 Z" />
<path fill="#f9e8d7" opacity="1.00" d=" M 559.96 328.31 C 560.62 326.13 561.26 323.95 561.98 321.79 C 561.92 323.26 561.86 324.74 561.81 326.22 C 561.73 327.53 561.66 328.84 561.61 330.15 C 559.22 329.90 556.82 329.87 554.44 329.91 C 556.64 330.69 558.89 331.37 561.19 331.85 C 561.21 333.28 561.23 334.71 561.26 336.15 C 559.98 336.77 558.74 337.46 557.51 338.18 C 558.85 338.20 560.20 338.20 561.55 338.16 C 562.54 341.45 563.77 344.67 564.58 348.02 C 564.64 348.44 564.74 349.28 564.79 349.71 C 564.31 351.51 563.76 353.30 563.27 355.11 C 564.06 349.81 563.20 344.53 561.30 339.57 C 559.76 339.51 558.25 339.46 556.73 339.41 C 555.99 335.56 554.21 332.07 552.33 328.68 C 554.87 328.52 557.42 328.42 559.96 328.31 Z" />
<path fill="#f9e8d7" opacity="1.00" d=" M 266.27 348.20 C 269.55 348.24 272.84 348.29 276.10 348.71 C 279.68 350.75 283.09 353.13 286.12 355.93 C 280.32 353.16 274.75 349.06 268.12 348.76 C 266.23 350.33 266.77 353.00 266.61 355.17 C 266.51 352.84 266.38 350.52 266.27 348.20 Z" />
<path fill="#f9e8d7" opacity="1.00" d=" M 141.73 363.81 C 144.42 359.90 147.64 356.20 151.84 353.87 C 148.78 357.48 145.48 360.91 141.73 363.81 Z" />
<path fill="#f9e8d7" opacity="1.00" d=" M 120.42 408.33 L 121.31 408.14 C 121.10 408.63 120.70 409.61 120.49 410.09 L 120.01 409.33 L 120.42 408.33 Z" />
<path fill="#f9e8d7" opacity="1.00" d=" M 444.59 443.63 C 448.71 441.33 453.60 441.88 458.14 441.92 C 461.89 442.43 465.29 444.32 468.06 446.87 C 461.05 442.52 452.52 441.66 444.59 443.63 Z" />
<path fill="#f9e8d7" opacity="1.00" d=" M 360.73 517.29 C 362.38 517.54 362.77 518.38 361.90 519.80 C 360.94 519.26 360.55 518.42 360.73 517.29 Z" />
<path fill="#f9e8d7" opacity="1.00" d=" M 758.23 517.62 C 760.31 517.63 760.30 521.56 759.15 522.80 C 758.43 521.16 758.11 519.39 758.23 517.62 Z" />
<path fill="#f9e8d7" opacity="1.00" d=" M 589.43 528.33 L 590.32 528.15 C 590.11 528.64 589.70 529.61 589.49 530.09 L 589.01 529.32 L 589.43 528.33 Z" />
<path fill="#f9e8d7" opacity="1.00" d=" M 386.45 547.27 L 387.32 547.03 C 387.14 547.53 386.76 548.53 386.58 549.03 L 386.07 548.29 L 386.45 547.27 Z" />
<path fill="#f9e8d7" opacity="1.00" d=" M 364.25 622.84 C 365.99 627.02 365.44 631.61 365.46 636.03 C 365.51 639.09 364.80 642.08 363.86 644.98 C 365.14 637.67 365.41 630.18 364.25 622.84 Z" />
</g>
<g id="#6f3303ff">
<path fill="#6f3303" opacity="1.00" d=" M 698.66 86.80 C 703.66 85.33 708.74 83.72 714.02 83.80 C 721.36 83.75 728.03 87.29 734.19 90.91 C 735.75 91.91 737.04 93.31 738.01 94.88 C 740.86 100.12 743.84 105.52 744.56 111.54 C 745.58 118.97 743.28 126.38 740.03 132.98 C 737.36 137.19 733.76 141.04 729.25 143.26 C 725.46 144.71 721.57 145.87 717.68 146.99 C 717.05 147.15 715.80 147.45 715.18 147.61 C 715.21 147.97 715.28 148.68 715.31 149.04 C 715.70 154.28 717.04 159.45 716.66 164.73 C 716.29 169.79 714.96 174.70 713.87 179.63 C 708.33 176.86 702.49 173.24 696.01 174.85 C 689.34 175.60 685.21 181.35 681.73 186.45 C 679.44 181.78 678.04 176.75 675.90 172.02 C 674.61 169.10 671.10 168.56 668.48 167.40 C 656.73 163.24 644.82 156.73 638.42 145.60 C 635.26 140.35 635.54 134.05 635.67 128.16 C 625.01 133.14 616.37 142.14 612.06 153.10 C 610.08 157.71 609.57 162.74 608.43 167.58 C 607.76 169.05 607.00 170.47 606.26 171.90 C 606.69 173.03 607.14 174.16 607.58 175.30 C 607.38 176.32 607.20 177.34 607.04 178.37 C 606.50 177.55 605.97 176.73 605.46 175.90 C 604.58 174.49 603.96 172.91 603.76 171.26 C 603.52 165.12 603.09 158.85 604.59 152.83 C 606.07 146.80 609.10 141.33 611.88 135.83 C 612.99 133.80 614.51 132.03 616.11 130.37 C 616.18 130.29 616.33 130.14 616.41 130.07 C 617.53 128.98 618.72 127.96 620.02 127.08 C 625.29 123.60 630.76 120.43 635.94 116.81 C 636.15 116.66 636.57 116.36 636.79 116.20 C 638.16 117.45 639.90 116.30 641.02 115.31 L 641.64 114.90 C 654.74 111.56 668.67 111.32 681.62 115.47 C 682.29 111.25 683.04 107.04 683.98 102.88 C 685.76 98.20 688.53 93.25 693.28 91.08 C 694.73 90.49 695.94 89.48 696.94 88.28 C 697.37 87.91 698.23 87.17 698.66 86.80 M 683.92 116.03 C 688.84 119.14 694.31 121.39 698.74 125.26 C 703.21 128.66 706.27 133.46 710.26 137.36 C 711.19 123.92 696.89 112.21 683.92 116.03 Z" />
</g>
<g id="#fefbf5ff">
<path fill="#fefbf5" opacity="1.00" d=" M 636.79 116.20 C 637.10 114.44 639.93 114.03 641.02 115.31 C 639.90 116.30 638.16 117.45 636.79 116.20 Z" />
<path fill="#fefbf5" opacity="1.00" d=" M 271.78 290.92 C 278.71 292.02 285.42 294.20 292.07 296.39 C 290.76 298.54 289.22 300.91 286.57 301.49 C 279.80 303.04 272.48 297.88 271.78 290.92 Z" />
</g>
<g id="#fec70aff">
<path fill="#fec70a" opacity="1.00" d=" M 683.92 116.03 C 696.89 112.21 711.19 123.92 710.26 137.36 C 706.27 133.46 703.21 128.66 698.74 125.26 C 694.31 121.39 688.84 119.14 683.92 116.03 Z" />
</g>
<g id="#ffaf81ff">
<path fill="#ffaf81" opacity="1.00" d=" M 612.06 153.10 C 616.37 142.14 625.01 133.14 635.67 128.16 C 635.54 134.05 635.26 140.35 638.42 145.60 C 644.82 156.73 656.73 163.24 668.48 167.40 C 671.10 168.56 674.61 169.10 675.90 172.02 C 678.04 176.75 679.44 181.78 681.73 186.45 C 685.21 181.35 689.34 175.60 696.01 174.85 C 702.49 173.24 708.33 176.86 713.87 179.63 C 714.42 180.56 714.97 181.49 715.52 182.44 C 718.29 187.17 719.28 193.04 717.42 198.28 C 715.96 204.09 711.19 208.58 705.72 210.71 C 700.54 212.20 695.13 210.97 689.91 210.40 C 686.98 214.31 684.37 218.47 681.05 222.06 C 679.87 223.55 678.27 225.04 678.24 227.07 C 678.27 237.11 680.44 247.02 680.30 257.06 C 680.50 260.39 680.34 265.27 684.17 266.60 C 689.95 268.62 695.69 270.80 701.66 272.20 C 700.19 272.23 698.73 272.35 697.28 272.47 C 693.83 277.56 689.21 281.72 684.03 284.99 C 672.00 290.09 658.85 291.72 645.87 291.00 C 645.25 289.88 644.68 288.72 643.82 287.77 C 642.18 288.15 640.63 288.80 639.16 289.58 L 638.49 290.06 C 637.38 289.77 636.29 289.46 635.21 289.15 C 630.92 287.90 626.38 285.55 624.71 281.14 C 624.66 277.34 625.04 273.55 625.70 269.81 C 628.91 267.96 632.64 267.29 636.06 265.89 C 636.91 260.15 636.20 254.35 636.35 248.58 C 636.76 251.15 637.28 253.70 637.79 256.26 C 641.95 255.07 645.37 252.38 648.56 249.55 C 653.84 244.86 660.31 241.34 664.25 235.28 C 658.81 235.99 653.52 237.69 648.01 237.82 C 644.08 237.92 640.15 237.84 636.23 237.66 C 634.32 237.62 632.46 237.14 630.80 236.23 C 625.74 233.53 620.66 230.53 617.00 226.02 C 611.91 220.20 609.47 212.72 605.46 206.21 C 608.82 197.31 606.09 187.61 607.04 178.37 C 607.20 177.34 607.38 176.32 607.58 175.30 C 612.20 174.97 617.53 175.35 621.29 172.16 C 622.62 171.28 622.35 169.72 621.79 168.46 C 617.88 165.65 612.82 167.33 608.43 167.58 C 609.57 162.74 610.08 157.71 612.06 153.10 M 642.33 167.14 C 640.09 167.57 638.77 170.64 640.96 172.03 C 645.38 174.92 650.93 175.17 656.05 175.38 C 658.40 175.32 661.84 175.51 662.73 172.72 C 663.44 170.26 660.32 169.21 658.57 168.43 C 653.39 166.82 647.67 165.79 642.33 167.14 M 690.19 199.25 C 693.15 196.62 693.48 192.01 696.94 189.83 C 700.24 187.33 704.57 187.91 708.44 187.54 C 706.80 185.21 703.56 186.11 701.19 186.36 C 694.98 187.36 690.68 193.21 690.19 199.25 M 640.79 190.11 C 645.27 190.07 649.78 188.81 654.12 190.68 C 654.06 190.05 653.93 188.79 653.87 188.16 C 649.62 186.71 643.70 185.80 640.79 190.11 M 610.37 190.81 C 614.07 190.51 617.79 190.54 621.49 190.84 C 619.75 186.41 611.96 186.21 610.37 190.81 M 623.02 205.62 C 625.41 206.13 627.81 206.58 630.25 206.79 C 628.73 205.49 626.93 204.60 625.11 203.81 C 625.77 201.51 626.38 199.20 626.83 196.85 C 624.46 199.19 623.46 202.40 623.02 205.62 M 623.90 212.45 C 624.56 214.75 625.69 217.18 628.24 217.85 C 634.15 219.75 641.69 217.89 645.17 212.48 C 638.09 212.18 630.99 212.25 623.90 212.45 Z" />
<path fill="#ffaf81" opacity="1.00" d=" M 710.21 369.81 C 711.63 376.93 710.78 384.47 713.69 391.28 C 716.38 397.69 718.95 404.26 719.50 411.26 C 719.75 415.62 720.57 420.78 717.32 424.30 C 711.82 430.44 704.05 433.71 697.08 437.84 C 709.33 436.62 721.45 434.39 733.73 433.47 C 732.07 423.10 728.22 413.27 725.51 403.16 C 725.72 401.26 726.04 399.39 726.36 397.51 C 743.23 392.59 759.60 385.93 776.71 381.85 L 777.63 381.64 C 780.00 397.55 784.27 413.09 787.31 428.88 C 789.11 438.24 792.79 447.35 792.57 457.00 C 792.54 465.78 786.53 474.25 778.22 477.12 C 767.99 480.55 757.33 476.76 746.98 476.09 C 713.17 472.88 679.35 469.68 645.52 466.58 C 639.65 466.14 633.89 467.68 628.06 468.04 C 619.64 468.93 611.27 467.63 603.03 466.04 C 597.16 464.67 593.29 459.72 589.91 455.13 C 585.79 451.69 579.75 453.77 574.99 451.95 C 567.32 448.82 560.90 441.53 560.62 432.99 C 559.85 422.11 563.59 411.69 565.00 401.02 C 565.60 397.34 565.89 393.58 566.97 389.99 C 567.96 386.59 569.07 383.22 570.19 379.86 C 573.37 380.13 576.54 380.49 579.71 380.95 C 581.25 388.39 585.16 395.19 590.06 400.92 C 592.25 403.65 595.78 404.56 599.09 405.03 C 616.34 406.81 633.61 408.46 650.84 410.53 C 659.15 411.67 667.54 411.93 675.89 412.69 C 677.04 412.72 678.20 412.74 679.37 412.76 C 680.56 404.89 681.17 396.75 684.52 389.42 C 685.57 387.15 687.27 384.70 689.97 384.38 C 691.46 384.67 693.20 385.57 693.38 387.28 C 693.97 390.28 694.17 393.35 694.59 396.39 C 697.76 393.66 700.74 390.56 702.07 386.50 C 698.30 384.85 693.97 383.68 691.56 380.07 C 697.37 375.97 704.10 379.94 709.93 381.83 C 710.25 377.83 710.51 373.81 710.21 369.81 Z" />
<path fill="#ffaf81" opacity="1.00" d=" M 327.09 589.08 C 331.41 589.78 335.59 591.34 339.20 593.85 C 335.17 592.24 331.08 590.78 327.09 589.08 Z" />
<path fill="#ffaf81" opacity="1.00" d=" M 340.97 595.25 C 342.01 593.82 344.64 595.60 343.76 597.11 C 342.62 596.85 341.65 596.17 340.97 595.25 Z" />
<path fill="#ffaf81" opacity="1.00" d=" M 350.66 602.57 C 352.14 601.33 354.68 603.85 353.45 605.34 C 352.27 604.68 351.31 603.73 350.66 602.57 Z" />
</g>
<g id="#ffeedcff">
<path fill="#ffeedc" opacity="1.00" d=" M 616.11 130.37 C 616.18 130.29 616.33 130.14 616.41 130.07 C 616.33 130.14 616.18 130.29 616.11 130.37 Z" />
<path fill="#ffeedc" opacity="1.00" d=" M 260.61 255.24 C 263.90 253.14 267.28 250.77 271.28 250.34 C 274.87 250.01 278.36 251.22 281.79 252.11 C 285.79 256.21 288.67 261.24 289.59 266.95 C 291.58 267.25 293.62 267.90 295.65 267.54 C 297.71 265.65 299.11 263.19 300.79 260.99 C 301.22 260.85 302.09 260.56 302.53 260.42 C 299.73 265.26 297.40 270.60 298.37 276.33 L 298.42 277.30 C 299.80 280.68 301.63 284.22 304.99 286.01 C 307.60 287.51 310.71 286.85 313.56 286.81 L 313.31 287.61 C 312.71 288.47 311.88 288.97 310.83 289.10 C 306.94 288.87 302.77 287.97 300.09 284.91 C 296.23 281.01 296.08 275.20 295.32 270.10 C 293.64 269.91 291.96 269.68 290.27 269.75 C 287.68 272.81 286.70 276.95 283.84 279.82 C 277.92 285.79 267.09 285.86 261.28 279.70 C 257.60 276.18 256.85 270.91 255.69 266.20 C 250.69 266.18 245.70 266.66 240.70 266.51 C 240.49 266.21 240.07 265.62 239.86 265.32 C 240.09 265.01 240.55 264.40 240.78 264.09 C 245.91 264.07 251.36 265.28 256.26 263.33 C 258.18 260.92 259.30 258.01 260.61 255.24 M 263.89 256.19 L 263.04 256.17 C 260.25 259.48 258.20 263.56 258.58 268.01 C 258.33 275.66 265.23 282.85 273.02 282.16 C 283.18 282.31 290.07 270.14 285.88 261.21 C 284.61 258.82 283.06 255.48 280.23 254.99 C 275.92 250.58 267.64 251.45 263.89 256.19 Z" />
</g>
<g id="#fceae6ff">
<path fill="#fceae6" opacity="1.00" d=" M 715.31 149.04 C 717.87 154.73 717.25 161.02 717.25 167.07 C 717.29 172.30 713.71 177.18 715.52 182.44 C 714.97 181.49 714.42 180.56 713.87 179.63 C 714.96 174.70 716.29 169.79 716.66 164.73 C 717.04 159.45 715.70 154.28 715.31 149.04 Z" />
<path fill="#fceae6" opacity="1.00" d=" M 272.96 196.05 C 277.53 193.20 282.75 190.91 288.23 191.01 C 283.04 192.37 277.89 193.92 272.96 196.05 Z" />
<path fill="#fceae6" opacity="1.00" d=" M 300.78 190.87 C 314.34 191.69 324.89 205.85 323.54 219.05 C 323.73 221.65 322.65 224.02 321.23 226.12 C 325.34 217.79 322.16 208.07 317.11 200.93 C 313.26 195.50 307.02 192.59 300.78 190.87 Z" />
<path fill="#fceae6" opacity="1.00" d=" M 247.01 198.87 C 254.68 197.71 262.47 200.38 270.04 198.15 C 268.13 199.90 265.58 200.53 263.05 200.10 C 252.47 199.05 241.46 199.26 231.49 203.36 C 224.86 205.83 219.67 210.86 214.94 215.95 C 221.81 205.20 234.66 199.80 247.01 198.87 Z" />
<path fill="#fceae6" opacity="1.00" d=" M 208.89 233.11 C 208.83 227.61 210.88 222.31 213.85 217.76 C 211.90 222.78 210.26 227.91 208.89 233.11 Z" />
<path fill="#fceae6" opacity="1.00" d=" M 208.87 245.06 C 207.63 241.45 207.69 237.56 208.78 233.93 C 208.72 237.64 208.72 241.35 208.87 245.06 Z" />
<path fill="#fceae6" opacity="1.00" d=" M 161.07 348.07 C 164.73 346.11 168.77 344.70 172.98 344.81 C 182.25 344.83 191.53 344.64 200.81 344.83 L 200.83 345.74 C 187.59 346.00 173.96 344.18 161.07 348.07 Z" />
<path fill="#fceae6" opacity="1.00" d=" M 152.91 353.04 C 154.77 350.97 157.21 349.57 159.85 348.78 C 157.61 350.32 155.28 351.71 152.91 353.04 Z" />
<path fill="#fceae6" opacity="1.00" d=" M 469.18 447.76 C 473.72 452.56 474.50 459.37 476.56 465.38 C 479.44 475.14 483.24 484.58 487.04 494.00 C 482.66 486.15 479.75 477.59 477.11 469.03 C 474.69 461.86 473.04 454.35 469.18 447.76 Z" />
<path fill="#fceae6" opacity="1.00" d=" M 100.72 492.95 C 101.16 483.81 102.74 474.71 105.21 465.90 C 104.25 474.99 102.89 484.06 100.72 492.95 Z" />
<path fill="#fceae6" opacity="1.00" d=" M 488.06 495.91 C 490.11 498.34 491.94 501.02 492.81 504.11 C 491.17 501.41 489.50 498.73 488.06 495.91 Z" />
<path fill="#fceae6" opacity="1.00" d=" M 398.51 591.00 C 399.25 608.15 397.82 625.41 394.20 642.19 C 394.28 636.37 396.20 630.76 396.50 624.96 C 397.88 613.70 398.69 602.35 398.51 591.00 Z" />
<path fill="#fceae6" opacity="1.00" d=" M 389.21 660.26 C 390.49 654.43 391.84 648.52 394.03 642.98 C 393.03 648.88 391.40 654.68 389.21 660.26 Z" />
<path fill="#fceae6" opacity="1.00" d=" M 426.32 646.88 C 426.83 647.64 427.32 648.42 427.80 649.23 C 428.33 652.69 428.73 656.17 429.01 659.67 C 425.91 660.02 422.81 660.31 419.75 660.84 C 421.21 655.87 423.60 651.26 426.32 646.88 Z" />
<path fill="#fceae6" opacity="1.00" d=" M 755.97 670.18 C 756.23 663.99 756.62 657.78 757.97 651.71 C 757.85 657.90 757.04 664.08 755.97 670.18 Z" />
<path fill="#fceae6" opacity="1.00" d=" M 380.19 678.60 C 383.12 672.73 385.99 666.82 388.96 660.96 C 387.09 667.30 384.06 673.25 380.19 678.60 Z" />
<path fill="#fceae6" opacity="1.00" d=" M 48.46 668.88 C 50.58 668.94 52.68 669.23 54.75 669.72 C 53.22 671.00 48.86 671.14 48.46 668.88 Z" />
<path fill="#fceae6" opacity="1.00" d=" M 681.04 689.68 C 681.86 695.76 681.50 701.91 681.84 708.02 C 682.74 719.08 682.61 730.18 683.69 741.23 L 682.79 741.07 C 681.47 731.47 682.27 721.71 681.42 712.07 C 680.64 704.64 680.56 697.14 681.04 689.68 Z" />
</g>
<g id="#291008ff">
<path fill="#291008" opacity="1.00" d=" M 608.43 167.58 C 612.82 167.33 617.88 165.65 621.79 168.46 C 622.35 169.72 622.62 171.28 621.29 172.16 C 617.53 175.35 612.20 174.97 607.58 175.30 C 607.14 174.16 606.69 173.03 606.26 171.90 C 607.00 170.47 607.76 169.05 608.43 167.58 Z" />
</g>
<g id="#271009ff">
<path fill="#271009" opacity="1.00" d=" M 642.33 167.14 C 647.67 165.79 653.39 166.82 658.57 168.43 C 660.32 169.21 663.44 170.26 662.73 172.72 C 661.84 175.51 658.40 175.32 656.05 175.38 C 650.93 175.17 645.38 174.92 640.96 172.03 C 638.77 170.64 640.09 167.57 642.33 167.14 Z" />
</g>
<g id="#f69463ff">
<path fill="#f69463" opacity="1.00" d=" M 605.46 175.90 C 605.97 176.73 606.50 177.55 607.04 178.37 C 606.09 187.61 608.82 197.31 605.46 206.21 C 600.45 202.55 596.49 196.69 597.25 190.25 C 597.78 184.44 602.64 180.61 605.46 175.90 Z" />
</g>
<g id="#2c0e07ff">
<path fill="#2c0e07" opacity="1.00" d=" M 690.19 199.25 C 690.68 193.21 694.98 187.36 701.19 186.36 C 703.56 186.11 706.80 185.21 708.44 187.54 C 704.57 187.91 700.24 187.33 696.94 189.83 C 693.48 192.01 693.15 196.62 690.19 199.25 Z" />
<path fill="#2c0e07" opacity="1.00" d=" M 623.02 205.62 C 623.46 202.40 624.46 199.19 626.83 196.85 C 626.38 199.20 625.77 201.51 625.11 203.81 C 626.93 204.60 628.73 205.49 630.25 206.79 C 627.81 206.58 625.41 206.13 623.02 205.62 Z" />
<path fill="#2c0e07" opacity="1.00" d=" M 259.08 250.95 C 264.39 246.62 271.85 246.42 278.26 247.78 C 280.47 248.09 280.90 250.47 281.79 252.11 C 278.36 251.22 274.87 250.01 271.28 250.34 C 267.28 250.77 263.90 253.14 260.61 255.24 C 260.10 253.81 259.58 252.38 259.08 250.95 Z" />
<path fill="#2c0e07" opacity="1.00" d=" M 603.80 337.32 C 611.08 339.12 618.61 340.91 625.17 344.66 C 617.89 342.83 610.39 341.02 603.80 337.32 Z" />
</g>
<g id="#190600ff">
<path fill="#190600" opacity="1.00" d=" M 640.79 190.11 C 643.70 185.80 649.62 186.71 653.87 188.16 C 653.93 188.79 654.06 190.05 654.12 190.68 C 649.78 188.81 645.27 190.07 640.79 190.11 Z" />
<path fill="#190600" opacity="1.00" d=" M 554.44 329.91 C 556.82 329.87 559.22 329.90 561.61 330.15 C 564.86 330.72 568.03 331.66 571.17 332.70 C 567.84 332.45 564.49 332.35 561.19 331.85 C 558.89 331.37 556.64 330.69 554.44 329.91 Z" />
<path fill="#190600" opacity="1.00" d=" M 579.16 332.00 C 581.47 331.93 583.78 332.17 586.00 332.84 C 584.85 335.19 581.49 337.61 583.55 340.35 C 585.11 342.76 587.33 344.65 589.16 346.85 C 586.04 345.44 583.72 342.91 581.76 340.20 C 579.94 341.25 578.12 342.29 576.29 343.31 C 577.74 341.72 579.35 340.25 580.50 338.42 C 580.51 336.21 579.65 334.12 579.16 332.00 Z" />
</g>
<g id="#310e07ff">
<path fill="#310e07" opacity="1.00" d=" M 610.37 190.81 C 611.96 186.21 619.75 186.41 621.49 190.84 C 617.79 190.54 614.07 190.51 610.37 190.81 Z" />
</g>
<g id="#e1cdc8fc">
<path fill="#e1cdc8" opacity="1.00" d=" M 288.28 190.12 C 292.40 189.46 296.63 189.44 300.75 190.12 L 299.83 190.75 C 296.28 191.05 292.71 191.06 289.16 190.84 L 288.28 190.12 Z" />
</g>
<g id="#25110cff">
<path fill="#25110c" opacity="1.00" d=" M 288.23 191.01 L 289.16 190.84 C 292.71 191.06 296.28 191.05 299.83 190.75 L 300.78 190.87 C 307.02 192.59 313.26 195.50 317.11 200.93 C 322.16 208.07 325.34 217.79 321.23 226.12 C 319.80 227.79 318.01 229.52 315.72 229.75 C 314.69 229.68 313.82 230.01 313.11 230.75 C 311.81 231.68 310.15 231.81 308.63 232.08 C 307.39 232.18 306.18 232.38 304.96 232.59 C 286.64 234.47 268.65 229.27 250.99 225.16 C 250.61 230.26 250.40 235.39 249.42 240.42 C 247.81 248.71 244.57 256.58 240.78 264.09 C 240.55 264.40 240.09 265.01 239.86 265.32 C 237.52 261.71 235.48 257.60 231.65 255.32 C 225.62 251.55 217.62 252.48 211.82 256.26 C 210.80 252.82 209.87 249.35 209.02 245.87 L 208.87 245.06 C 208.72 241.35 208.72 237.64 208.78 233.93 L 208.89 233.11 C 210.26 227.91 211.90 222.78 213.85 217.76 C 214.12 217.31 214.67 216.41 214.94 215.95 C 219.67 210.86 224.86 205.83 231.49 203.36 C 241.46 199.26 252.47 199.05 263.05 200.10 C 265.58 200.53 268.13 199.90 270.04 198.15 C 271.01 197.44 271.94 196.68 272.96 196.05 C 277.89 193.92 283.04 192.37 288.23 191.01 Z" />
</g>
<g id="#fefcf4ff">
<path fill="#fefcf4" opacity="1.00" d=" M 623.90 212.45 C 630.99 212.25 638.09 212.18 645.17 212.48 C 641.69 217.89 634.15 219.75 628.24 217.85 C 625.69 217.18 624.56 214.75 623.90 212.45 Z" />
<path fill="#fefcf4" opacity="1.00" d=" M 355.83 660.02 L 356.34 659.83 C 357.85 661.27 355.56 664.53 353.76 663.34 C 354.43 662.21 355.12 661.11 355.83 660.02 Z" />
</g>
<g id="#f48259ff">
<path fill="#f48259" opacity="1.00" d=" M 250.99 225.16 C 268.65 229.27 286.64 234.47 304.96 232.59 C 305.77 233.48 306.68 234.27 307.63 235.01 C 309.10 237.33 309.73 240.13 309.94 242.85 C 309.85 245.77 309.59 248.69 309.35 251.61 C 305.98 251.54 302.14 250.36 299.07 252.15 C 296.43 254.79 300.26 257.50 302.00 259.32 C 301.70 259.73 301.09 260.57 300.79 260.99 C 299.11 263.19 297.71 265.65 295.65 267.54 C 293.62 267.90 291.58 267.25 289.59 266.95 C 288.67 261.24 285.79 256.21 281.79 252.11 C 280.90 250.47 280.47 248.09 278.26 247.78 C 271.85 246.42 264.39 246.62 259.08 250.95 C 259.58 252.38 260.10 253.81 260.61 255.24 C 259.30 258.01 258.18 260.92 256.26 263.33 C 251.36 265.28 245.91 264.07 240.78 264.09 C 244.57 256.58 247.81 248.71 249.42 240.42 C 250.40 235.39 250.61 230.26 250.99 225.16 Z" />
</g>
<g id="#fceeebfe">
<path fill="#fceeeb" opacity="1.00" d=" M 313.11 230.75 C 313.82 230.01 314.69 229.68 315.72 229.75 C 315.37 231.51 314.50 231.84 313.11 230.75 Z" />
<path fill="#fceeeb" opacity="1.00" d=" M 309.94 242.85 C 310.60 246.33 310.05 250.54 312.89 253.19 C 317.46 258.19 324.02 262.60 324.60 269.95 C 325.60 277.64 320.40 285.00 313.31 287.61 L 313.56 286.81 C 314.69 282.17 316.41 276.78 313.52 272.43 C 311.54 269.33 309.44 266.22 308.82 262.52 C 310.81 261.44 312.76 260.27 314.61 258.98 C 311.33 257.92 307.95 258.48 304.81 259.70 C 304.24 259.88 303.10 260.24 302.53 260.42 C 302.09 260.56 301.22 260.85 300.79 260.99 C 301.09 260.57 301.70 259.73 302.00 259.32 C 305.30 256.91 309.42 256.37 313.33 255.72 C 312.00 254.35 310.67 252.98 309.35 251.61 C 309.59 248.69 309.85 245.77 309.94 242.85 Z" />
<path fill="#fceeeb" opacity="1.00" d=" M 613.04 277.09 C 617.17 274.51 621.15 271.64 625.70 269.81 C 625.04 273.55 624.66 277.34 624.71 281.14 C 624.36 277.99 624.35 274.82 624.21 271.67 C 617.33 274.70 611.73 279.89 604.93 283.07 C 607.28 280.63 610.21 278.90 613.04 277.09 Z" />
<path fill="#fceeeb" opacity="1.00" d=" M 754.02 308.94 C 755.71 310.31 757.13 311.99 758.15 313.93 C 756.76 312.27 755.38 310.61 754.02 308.94 Z" />
<path fill="#fceeeb" opacity="1.00" d=" M 758.93 315.02 C 762.37 318.49 764.99 322.71 767.01 327.14 C 764.05 323.28 761.37 319.22 758.93 315.02 Z" />
<path fill="#fceeeb" opacity="1.00" d=" M 387.29 544.42 L 388.17 544.26 C 387.95 544.74 387.51 545.71 387.29 546.19 L 386.84 545.40 L 387.29 544.42 Z" />
<path fill="#fceeeb" opacity="1.00" d=" M 762.12 544.70 C 764.15 552.34 762.40 560.25 763.06 568.01 C 762.98 577.37 763.65 586.80 762.24 596.10 C 762.43 578.97 762.68 561.83 762.12 544.70 Z" />
</g>
<g id="#876b62b0">
<path fill="#876b62" opacity="0.69" d=" M 304.96 232.59 C 306.18 232.38 307.39 232.18 308.63 232.08 C 309.27 233.36 308.93 234.34 307.63 235.01 C 306.68 234.27 305.77 233.48 304.96 232.59 Z" />
</g>
<g id="#f99360ff">
<path fill="#f99360" opacity="1.00" d=" M 648.01 237.82 C 653.52 237.69 658.81 235.99 664.25 235.28 C 660.31 241.34 653.84 244.86 648.56 249.55 C 645.37 252.38 641.95 255.07 637.79 256.26 C 637.28 253.70 636.76 251.15 636.35 248.58 C 635.94 244.95 636.36 241.30 636.23 237.66 C 640.15 237.84 644.08 237.92 648.01 237.82 Z" />
<path fill="#f99360" opacity="1.00" d=" M 341.01 491.20 C 342.16 489.78 344.73 491.77 343.78 493.27 C 342.70 492.80 341.74 492.11 341.01 491.20 Z" />
</g>
<g id="#2a0f07ff">
<path fill="#2a0f07" opacity="1.00" d=" M 299.07 252.15 C 302.14 250.36 305.98 251.54 309.35 251.61 C 310.67 252.98 312.00 254.35 313.33 255.72 C 309.42 256.37 305.30 256.91 302.00 259.32 C 300.26 257.50 296.43 254.79 299.07 252.15 Z" />
</g>
<g id="#62524cff">
<path fill="#62524c" opacity="1.00" d=" M 263.89 256.19 C 267.64 251.45 275.92 250.58 280.23 254.99 C 274.83 255.84 269.37 256.46 263.89 256.19 Z" />
</g>
<g id="#f58258ff">
<path fill="#f58258" opacity="1.00" d=" M 211.82 256.26 C 217.62 252.48 225.62 251.55 231.65 255.32 C 235.48 257.60 237.52 261.71 239.86 265.32 C 240.07 265.62 240.49 266.21 240.70 266.51 C 245.70 266.66 250.69 266.18 255.69 266.20 C 256.85 270.91 257.60 276.18 261.28 279.70 C 267.09 285.86 277.92 285.79 283.84 279.82 C 286.70 276.95 287.68 272.81 290.27 269.75 C 291.96 269.68 293.64 269.91 295.32 270.10 C 296.08 275.20 296.23 281.01 300.09 284.91 C 302.77 287.97 306.94 288.87 310.83 289.10 C 308.05 290.84 305.43 293.02 304.21 296.17 C 299.55 306.74 290.97 316.14 279.76 319.73 C 275.40 321.24 270.62 320.77 266.35 322.60 L 266.03 322.71 C 263.13 320.53 259.60 319.58 256.14 318.73 C 251.66 317.57 247.40 315.71 243.11 314.00 C 249.39 321.99 256.41 329.36 263.36 336.76 C 263.98 335.46 264.60 334.15 265.18 332.84 C 264.99 335.52 264.49 338.17 263.87 340.79 C 261.97 347.07 266.07 353.03 265.57 359.31 C 265.42 363.71 263.55 368.31 259.67 370.67 C 255.03 373.47 249.33 373.46 244.11 372.95 C 233.65 371.74 223.71 367.10 215.77 360.22 C 211.24 356.20 206.57 352.07 203.83 346.55 C 206.91 345.48 212.63 346.57 213.06 342.19 C 213.46 338.94 213.83 335.68 214.65 332.51 C 217.94 319.94 220.32 307.14 223.84 294.63 C 224.59 292.34 224.59 289.93 224.14 287.59 C 220.56 287.35 216.72 287.36 213.55 285.46 C 210.04 283.33 207.18 280.07 205.62 276.26 C 205.46 271.44 205.77 266.59 206.71 261.84 C 207.34 260.77 208.14 259.81 209.00 258.92 C 209.90 257.99 210.84 257.10 211.82 256.26 M 214.71 263.10 C 218.54 264.93 223.51 265.12 226.22 268.78 C 228.06 271.65 228.59 275.12 229.96 278.22 C 231.00 273.07 228.78 267.49 224.22 264.79 C 221.42 262.90 217.94 262.87 214.71 263.10 M 292.20 275.47 C 292.01 279.11 292.27 282.76 292.65 286.38 C 290.79 287.00 287.87 286.60 287.63 289.19 C 289.84 288.94 292.04 288.54 294.21 288.05 C 294.25 283.80 294.62 279.22 292.20 275.47 M 271.78 290.92 C 272.48 297.88 279.80 303.04 286.57 301.49 C 289.22 300.91 290.76 298.54 292.07 296.39 C 285.42 294.20 278.71 292.02 271.78 290.92 Z" />
<path fill="#f58258" opacity="1.00" d=" M 257.12 470.14 C 262.74 468.00 268.85 468.40 274.70 469.08 C 275.19 469.12 276.16 469.20 276.64 469.24 C 279.27 471.94 282.18 474.42 284.40 477.49 C 286.92 481.14 287.01 485.77 287.42 490.03 C 279.23 491.21 271.24 493.35 263.18 495.14 C 254.08 497.24 244.93 499.08 235.91 501.49 C 234.68 500.64 232.86 500.19 232.59 498.50 C 231.58 495.04 231.28 491.42 230.67 487.89 C 238.44 480.65 247.05 473.84 257.12 470.14 Z" />
<path fill="#f58258" opacity="1.00" d=" M 156.99 617.09 C 162.01 615.76 166.92 614.05 171.90 612.61 C 179.78 619.78 186.82 627.87 193.55 636.12 C 188.68 638.89 183.60 641.27 178.80 644.16 C 169.37 647.97 160.66 653.27 151.33 657.30 C 148.97 653.23 147.12 648.73 147.28 643.95 C 147.43 634.28 151.00 624.65 156.99 617.09 Z" />
</g>
<g id="#f7a688ff">
<path fill="#f7a688" opacity="1.00" d=" M 263.89 256.19 C 269.37 256.46 274.83 255.84 280.23 254.99 C 283.06 255.48 284.61 258.82 285.88 261.21 C 290.07 270.14 283.18 282.31 273.02 282.16 C 265.23 282.85 258.33 275.66 258.58 268.01 C 258.20 263.56 260.25 259.48 263.04 256.17 L 263.89 256.19 M 271.73 269.05 C 271.84 270.31 272.00 271.56 272.24 272.81 C 274.01 272.76 275.80 272.69 277.58 272.62 C 277.53 270.74 279.07 268.04 276.70 267.05 C 274.94 266.05 271.97 266.80 271.73 269.05 Z" />
<path fill="#f7a688" opacity="1.00" d=" M 760.86 535.40 C 763.01 535.96 762.77 540.16 761.60 541.76 C 761.04 539.68 760.72 537.55 760.86 535.40 Z" />
</g>
<g id="#5d534cff">
<path fill="#5d534c" opacity="1.00" d=" M 304.81 259.70 C 307.95 258.48 311.33 257.92 314.61 258.98 C 312.76 260.27 310.81 261.44 308.82 262.52 C 307.49 261.57 306.14 260.63 304.81 259.70 Z" />
</g>
<g id="#efa283ff">
<path fill="#efa283" opacity="1.00" d=" M 302.53 260.42 C 303.10 260.24 304.24 259.88 304.81 259.70 C 306.14 260.63 307.49 261.57 308.82 262.52 C 309.44 266.22 311.54 269.33 313.52 272.43 C 316.41 276.78 314.69 282.17 313.56 286.81 C 310.71 286.85 307.60 287.51 304.99 286.01 C 301.63 284.22 299.80 280.68 298.42 277.30 C 300.45 277.41 302.49 277.51 304.53 277.60 C 304.67 275.71 304.80 273.82 304.93 271.93 C 303.51 271.77 302.08 271.40 300.65 271.60 C 298.77 272.36 298.92 274.70 298.37 276.33 C 297.40 270.60 299.73 265.26 302.53 260.42 Z" />
<path fill="#efa283" opacity="1.00" d=" M 312.68 484.33 C 316.45 483.89 320.25 483.79 324.03 484.12 C 329.39 485.01 334.84 486.46 339.24 489.81 C 330.96 485.90 321.83 484.09 312.68 484.33 Z" />
</g>
<g id="#5f170cff">
<path fill="#5f170c" opacity="1.00" d=" M 214.71 263.10 C 217.94 262.87 221.42 262.90 224.22 264.79 C 228.78 267.49 231.00 273.07 229.96 278.22 C 228.59 275.12 228.06 271.65 226.22 268.78 C 223.51 265.12 218.54 264.93 214.71 263.10 Z" />
</g>
<g id="#6d4f46ff">
<path fill="#6d4f46" opacity="1.00" d=" M 271.73 269.05 C 271.97 266.80 274.94 266.05 276.70 267.05 C 279.07 268.04 277.53 270.74 277.58 272.62 C 275.80 272.69 274.01 272.76 272.24 272.81 C 272.00 271.56 271.84 270.31 271.73 269.05 Z" />
</g>
<g id="#6b4f46ff">
<path fill="#6b4f46" opacity="1.00" d=" M 300.65 271.60 C 302.08 271.40 303.51 271.77 304.93 271.93 C 304.80 273.82 304.67 275.71 304.53 277.60 C 302.49 277.51 300.45 277.41 298.42 277.30 L 298.37 276.33 C 298.92 274.70 298.77 272.36 300.65 271.60 Z" />
</g>
<g id="#016bbbff">
<path fill="#016bbb" opacity="1.00" d=" M 604.93 283.07 C 611.73 279.89 617.33 274.70 624.21 271.67 C 624.35 274.82 624.36 277.99 624.71 281.14 C 626.38 285.55 630.92 287.90 635.21 289.15 C 635.24 289.63 635.29 290.59 635.32 291.07 C 628.23 294.27 621.12 299.69 612.90 298.17 C 605.14 297.14 597.31 297.80 589.52 297.82 C 589.64 294.14 593.17 292.02 595.76 289.96 C 598.80 288.03 601.61 285.78 604.36 283.46 L 604.93 283.07 Z" />
<path fill="#016bbb" opacity="1.00" d=" M 564.79 349.71 C 567.66 352.50 571.24 354.36 574.64 356.41 C 575.89 357.27 577.74 358.12 577.50 359.95 C 577.61 366.68 576.76 373.49 578.12 380.16 C 572.40 378.74 566.82 376.79 561.60 374.03 C 561.56 367.96 562.27 361.93 563.07 355.93 L 563.27 355.11 C 563.76 353.30 564.31 351.51 564.79 349.71 Z" />
</g>
<g id="#ffffffff">
<path fill="#ffffff" opacity="1.00" d=" M 697.28 272.47 C 698.73 272.35 700.19 272.23 701.66 272.20 C 707.03 273.74 711.91 276.50 716.73 279.26 C 725.03 283.21 732.22 289.00 739.55 294.48 C 744.46 298.50 749.45 302.65 753.10 307.92 C 742.76 297.62 731.31 288.33 718.50 281.28 C 711.78 277.58 704.85 274.02 697.28 272.47 Z" />
<path fill="#ffffff" opacity="1.00" d=" M 357.67 433.46 C 358.35 430.38 361.82 429.14 364.65 429.53 C 368.30 430.00 372.23 430.02 375.45 432.04 C 370.66 431.46 365.73 429.30 360.92 430.63 C 356.55 432.76 357.94 438.48 357.83 442.40 C 364.36 439.64 370.50 436.06 376.46 432.24 C 385.49 432.35 394.40 434.11 403.33 435.34 C 417.20 437.50 431.19 438.86 444.99 441.45 C 449.36 441.87 453.80 440.96 458.14 441.92 C 453.60 441.88 448.71 441.33 444.59 443.63 C 438.04 447.11 432.52 453.47 432.26 461.19 C 431.71 476.10 433.26 491.28 438.40 505.37 C 432.87 507.74 426.74 507.10 420.91 507.88 C 414.93 508.65 408.92 509.06 402.90 509.17 C 406.47 508.31 410.22 507.98 413.58 506.37 C 412.41 503.16 412.18 498.93 408.46 497.57 C 397.28 492.02 386.91 484.80 378.19 475.83 C 370.15 467.39 361.12 459.03 357.39 447.64 C 356.30 443.02 356.37 438.02 357.67 433.46 M 403.29 441.10 C 402.19 443.11 401.98 445.34 402.47 447.57 C 404.62 447.75 407.91 448.36 408.40 445.43 C 409.36 442.28 405.78 441.03 403.29 441.10 Z" />
<path fill="#ffffff" opacity="1.00" d=" M 445.38 519.02 C 451.84 525.99 462.20 525.64 470.91 524.96 C 469.58 525.63 468.24 526.28 466.92 526.94 C 478.79 538.55 490.75 550.50 499.01 565.08 C 511.44 586.12 518.68 609.89 522.21 633.98 C 522.62 637.44 523.75 640.75 524.32 644.17 C 524.66 648.42 525.17 652.66 525.66 656.90 C 527.78 656.59 530.02 656.18 531.55 654.53 C 537.72 648.75 541.16 640.53 542.87 632.39 C 545.06 623.13 544.69 613.58 544.55 604.15 C 545.58 604.87 546.61 605.59 547.63 606.35 C 548.89 608.29 549.45 610.58 550.10 612.79 C 552.16 621.02 554.35 629.45 553.49 638.02 C 552.05 646.66 550.19 655.59 544.92 662.81 C 538.84 671.84 529.48 680.21 518.01 680.31 C 493.01 680.85 468.00 680.30 443.00 680.48 C 434.67 680.42 426.32 680.83 418.01 680.01 C 408.68 679.24 399.32 681.06 390.01 679.92 C 386.56 679.59 383.08 679.91 379.64 679.42 C 382.61 679.22 385.67 679.55 388.58 678.76 C 391.51 675.79 393.28 671.91 395.20 668.26 C 402.19 654.29 405.19 638.78 407.28 623.42 C 409.45 612.75 410.24 601.87 410.08 591.00 C 409.91 584.71 410.33 578.30 408.70 572.16 C 407.19 576.99 408.15 582.06 408.23 587.01 C 408.38 593.39 408.34 599.79 407.79 606.16 C 404.15 599.09 401.95 591.42 399.41 583.92 C 399.08 586.04 398.77 588.16 398.53 590.30 C 397.10 580.04 396.72 569.60 394.49 559.45 C 392.39 559.36 390.28 559.34 388.19 559.30 C 406.66 545.05 426.90 533.26 445.38 519.02 M 433.04 587.04 C 428.48 594.03 428.71 602.88 430.24 610.78 C 433.83 628.18 442.81 643.79 452.00 658.78 C 448.94 658.60 445.59 659.37 442.72 658.18 C 437.13 652.91 433.20 646.15 427.91 640.60 C 427.65 643.46 427.50 646.36 427.80 649.23 C 427.32 648.42 426.83 647.64 426.32 646.88 C 423.60 651.26 421.21 655.87 419.75 660.84 C 417.90 661.97 416.92 664.03 415.69 665.74 C 412.77 670.46 409.02 674.58 405.71 679.03 C 409.97 679.31 414.25 679.40 418.52 679.03 C 418.84 675.61 419.03 671.97 421.04 669.05 C 424.71 663.53 431.48 660.65 437.97 660.62 C 443.68 660.52 449.40 660.80 455.11 660.53 C 451.55 653.64 446.87 647.40 443.51 640.39 C 437.03 627.53 430.62 613.69 431.23 598.96 C 431.43 590.83 436.56 583.02 444.32 580.27 C 448.49 578.18 453.77 579.09 457.48 576.08 C 448.31 575.57 438.22 579.10 433.04 587.04 Z" />
</g>
<g id="#006cbeff">
<path fill="#006cbe" opacity="1.00" d=" M 697.28 272.47 C 704.85 274.02 711.78 277.58 718.50 281.28 C 731.31 288.33 742.76 297.62 753.10 307.92 C 753.33 308.17 753.79 308.68 754.02 308.94 C 755.38 310.61 756.76 312.27 758.15 313.93 C 758.34 314.21 758.74 314.75 758.93 315.02 C 761.37 319.22 764.05 323.28 767.01 327.14 C 767.82 328.34 768.42 329.67 769.02 331.00 C 769.92 333.10 770.92 335.17 772.03 337.18 C 772.83 338.71 773.52 340.31 774.02 341.98 C 776.98 352.29 779.71 362.67 780.94 373.35 C 781.15 375.13 781.15 376.93 781.18 378.73 L 780.20 378.97 C 769.80 381.48 759.79 385.36 749.59 388.57 C 741.10 391.57 732.31 393.73 724.00 397.22 C 724.48 399.20 724.98 401.19 725.51 403.16 C 728.22 413.27 732.07 423.10 733.73 433.47 C 721.45 434.39 709.33 436.62 697.08 437.84 C 704.05 433.71 711.82 430.44 717.32 424.30 C 720.57 420.78 719.75 415.62 719.50 411.26 C 718.95 404.26 716.38 397.69 713.69 391.28 C 710.78 384.47 711.63 376.93 710.21 369.81 C 707.27 357.60 695.41 348.66 683.15 347.52 C 683.05 347.01 682.95 346.50 682.87 346.00 C 681.90 345.82 680.94 345.66 679.99 345.49 C 690.14 336.12 704.08 331.53 717.75 331.29 C 717.80 330.90 717.90 330.13 717.95 329.75 C 718.03 328.47 718.09 327.20 718.14 325.93 C 713.31 325.46 708.43 325.59 703.69 326.61 C 693.68 328.64 683.43 331.75 675.58 338.57 C 673.01 340.57 670.55 343.32 667.06 343.38 C 658.98 343.81 650.86 343.42 642.85 342.25 C 640.57 339.85 638.18 337.56 635.71 335.35 C 632.41 329.45 633.12 322.42 634.10 316.01 C 634.79 311.51 638.43 308.40 640.65 304.65 C 643.01 301.10 644.03 296.83 646.41 293.30 C 651.01 291.48 656.20 292.68 661.04 292.04 C 669.01 291.17 677.44 289.92 684.03 284.99 C 689.21 281.72 693.83 277.56 697.28 272.47 Z" />
<path fill="#006cbe" opacity="1.00" d=" M 288.22 489.87 C 296.22 487.42 304.39 485.44 312.68 484.33 C 321.83 484.09 330.96 485.90 339.24 489.81 C 339.69 490.16 340.57 490.85 341.01 491.20 C 341.74 492.11 342.70 492.80 343.78 493.27 C 344.08 493.50 344.69 493.98 344.99 494.21 C 346.00 495.36 347.12 496.44 348.42 497.28 C 352.27 499.88 354.75 503.91 357.17 507.77 C 358.87 510.69 360.56 513.83 360.73 517.29 C 360.55 518.42 360.94 519.26 361.90 519.80 L 362.60 520.25 C 362.60 520.79 362.60 521.86 362.60 522.40 C 362.46 523.92 363.00 525.37 363.55 526.78 C 365.54 535.35 364.75 544.78 360.77 552.71 C 354.95 565.13 344.91 575.30 333.19 582.27 C 330.74 583.68 328.21 585.04 325.44 585.69 C 321.73 586.51 318.07 587.71 314.86 589.79 C 304.24 596.37 292.89 601.64 282.25 608.19 C 263.90 617.61 246.18 628.22 227.99 637.97 C 222.08 641.12 216.41 644.79 210.08 647.08 C 203.36 641.78 198.27 634.72 191.28 629.72 C 191.03 629.47 190.53 628.99 190.28 628.74 C 185.11 619.98 176.32 614.07 171.56 605.01 C 177.29 598.91 185.09 595.52 191.94 590.92 C 221.66 570.89 251.66 551.30 281.57 531.56 C 284.65 529.40 289.32 527.68 288.92 523.12 C 286.26 523.28 283.55 523.73 281.32 525.29 C 274.84 529.43 268.58 533.93 262.17 538.18 C 255.64 542.73 248.69 546.63 242.15 551.16 C 235.00 556.06 227.84 560.95 220.46 565.49 C 213.69 569.64 207.46 574.57 200.74 578.78 C 192.20 584.19 183.81 589.81 175.40 595.40 C 172.04 597.70 168.27 599.55 165.47 602.56 C 165.24 605.83 166.16 609.04 166.69 612.25 C 164.26 613.05 161.82 613.84 159.44 614.77 C 155.39 609.63 149.49 606.59 144.34 602.75 C 140.57 600.01 136.70 597.39 132.60 595.17 C 129.34 593.36 125.79 592.21 122.20 591.26 C 118.29 601.65 116.56 612.86 111.67 622.87 C 109.85 617.24 103.68 615.09 100.65 610.31 C 96.20 603.80 92.41 596.81 89.97 589.29 C 89.69 582.47 88.58 575.63 89.59 568.82 C 90.48 560.98 93.38 553.59 96.38 546.37 C 98.06 542.57 99.82 538.71 102.58 535.57 C 104.85 532.98 108.40 532.31 111.58 531.50 C 121.94 529.28 132.17 526.46 142.58 524.51 C 153.55 522.55 164.11 518.80 175.14 517.14 C 189.87 514.01 204.45 510.16 219.21 507.11 C 224.66 506.09 230.05 504.73 235.33 503.04 C 245.29 500.71 255.27 498.51 265.25 496.27 C 272.98 494.42 280.99 493.37 288.22 489.87 Z" />
<path fill="#006cbe" opacity="1.00" d=" M 311.91 596.88 C 317.03 594.29 322.32 589.24 328.47 591.51 C 336.40 594.59 343.67 599.26 350.13 604.78 C 355.28 608.86 358.45 614.85 361.04 620.76 C 366.08 633.76 361.98 648.15 355.83 660.02 C 355.12 661.11 354.43 662.21 353.76 663.34 C 349.33 669.68 342.24 673.46 335.20 676.22 C 328.88 679.07 321.83 679.55 315.00 679.85 C 259.34 679.83 203.67 679.81 148.01 679.85 C 142.94 679.80 137.82 680.28 132.83 679.20 C 133.66 678.32 134.49 677.45 135.32 676.58 C 136.35 676.42 137.38 676.26 138.41 676.11 C 138.43 674.82 138.46 673.54 138.42 672.27 C 140.18 671.15 141.94 670.03 143.67 668.87 C 145.02 667.93 146.26 666.84 147.40 665.67 C 149.27 663.24 152.20 660.69 151.33 657.30 C 160.66 653.27 169.37 647.97 178.80 644.16 C 184.73 644.38 189.28 640.16 194.80 639.02 C 199.94 642.24 202.35 648.41 207.55 651.56 C 210.33 653.14 213.38 651.12 215.87 649.88 C 229.89 641.31 244.71 634.15 258.95 625.96 C 276.70 616.44 294.01 606.12 311.91 596.88 Z" />
</g>
<g id="#621d0eff">
<path fill="#621d0e" opacity="1.00" d=" M 292.20 275.47 C 294.62 279.22 294.25 283.80 294.21 288.05 C 292.04 288.54 289.84 288.94 287.63 289.19 C 287.87 286.60 290.79 287.00 292.65 286.38 C 292.27 282.76 292.01 279.11 292.20 275.47 Z" />
</g>
<g id="#f4db9dfc">
<path fill="#f4db9d" opacity="1.00" d=" M 565.27 279.97 C 568.02 281.75 570.65 283.71 573.17 285.81 C 577.39 289.33 582.21 292.06 586.29 295.77 C 580.16 293.62 575.27 289.25 569.90 285.77 C 568.42 284.93 566.86 284.26 565.30 283.59 C 565.45 289.20 566.57 294.73 568.06 300.13 C 564.91 296.90 564.80 292.10 563.78 287.96 C 563.05 285.15 563.29 282.21 565.27 279.97 Z" />
<path fill="#f4db9d" opacity="1.00" d=" M 362.60 522.40 C 364.49 522.35 364.96 525.79 363.55 526.78 C 363.00 525.37 362.46 523.92 362.60 522.40 Z" />
</g>
<g id="#fcfbf9ff">
<path fill="#fcfbf9" opacity="1.00" d=" M 595.76 289.96 C 598.07 287.15 600.95 284.79 604.36 283.46 C 601.61 285.78 598.80 288.03 595.76 289.96 Z" />
<path fill="#fcfbf9" opacity="1.00" d=" M 266.03 322.71 L 266.35 322.60 C 266.82 324.63 267.44 328.50 265.56 329.62 C 265.39 327.31 265.40 324.96 266.03 322.71 Z" />
<path fill="#fcfbf9" opacity="1.00" d=" M 774.02 341.98 C 777.22 348.50 778.48 355.72 780.05 362.75 C 780.90 366.22 781.15 369.79 780.94 373.35 C 779.71 362.67 776.98 352.29 774.02 341.98 Z" />
<path fill="#fcfbf9" opacity="1.00" d=" M 561.70 375.35 C 560.05 368.98 560.82 362.06 563.07 355.93 C 562.27 361.93 561.56 367.96 561.60 374.03 C 566.82 376.79 572.40 378.74 578.12 380.16 L 579.17 380.48 C 578.62 372.68 578.10 364.81 579.46 357.06 C 579.32 365.02 578.60 373.02 579.71 380.95 C 576.54 380.49 573.37 380.13 570.19 379.86 C 569.07 383.22 567.96 386.59 566.97 389.99 C 567.45 386.12 568.60 382.40 569.88 378.73 C 567.14 377.63 564.19 376.98 561.70 375.35 Z" />
<path fill="#fcfbf9" opacity="1.00" d=" M 98.52 523.87 C 97.73 514.18 98.50 504.40 100.36 494.89 C 100.09 501.61 99.30 508.28 98.86 514.99 C 98.42 521.30 99.96 527.51 100.21 533.79 C 95.13 544.46 89.63 555.22 88.09 567.09 C 87.27 574.49 86.85 582.32 89.97 589.29 C 92.41 596.81 96.20 603.80 100.65 610.31 C 95.02 604.52 91.11 597.22 88.54 589.62 C 86.62 583.95 86.68 577.90 86.75 572.00 C 86.61 565.12 89.02 558.55 91.08 552.09 C 92.97 545.96 96.37 540.49 99.04 534.70 C 100.60 531.20 98.95 527.43 98.52 523.87 Z" />
<path fill="#fcfbf9" opacity="1.00" d=" M 136.12 651.61 C 137.30 651.49 138.47 651.38 139.64 651.28 C 142.78 655.76 145.13 660.71 147.40 665.67 C 146.26 666.84 145.02 667.93 143.67 668.87 C 141.86 662.79 137.67 657.76 136.12 651.61 Z" />
</g>
<g id="#fdda3cfe">
<path fill="#fdda3c" opacity="1.00" d=" M 565.30 283.59 C 566.86 284.26 568.42 284.93 569.90 285.77 C 570.75 292.22 576.69 295.73 580.05 300.78 C 570.92 306.39 564.88 316.14 561.81 326.22 C 561.86 324.74 561.92 323.26 561.98 321.79 C 562.06 315.77 567.29 311.79 569.69 306.70 C 569.77 304.40 568.63 302.30 568.06 300.13 C 566.57 294.73 565.45 289.20 565.30 283.59 Z" />
</g>
<g id="#427173ff">
<path fill="#427173" opacity="1.00" d=" M 645.87 291.00 C 658.85 291.72 672.00 290.09 684.03 284.99 C 677.44 289.92 669.01 291.17 661.04 292.04 C 656.20 292.68 651.01 291.48 646.41 293.30 C 644.03 296.83 643.01 301.10 640.65 304.65 C 638.43 308.40 634.79 311.51 634.10 316.01 C 633.12 322.42 632.41 329.45 635.71 335.35 C 635.35 335.20 634.61 334.90 634.24 334.74 C 633.84 334.58 633.03 334.25 632.63 334.08 L 632.32 333.34 C 631.64 327.28 631.63 321.13 632.46 315.09 C 632.94 311.68 635.70 309.31 637.59 306.63 C 641.33 301.99 643.10 296.20 645.87 291.00 Z" />
</g>
<g id="#ffc900ff">
<path fill="#ffc900" opacity="1.00" d=" M 569.90 285.77 C 575.27 289.25 580.16 293.62 586.29 295.77 C 587.30 296.19 587.97 297.09 588.75 297.83 C 589.64 298.68 590.50 299.87 591.93 299.60 C 596.96 299.48 601.97 298.22 607.02 298.90 C 611.71 299.29 616.61 301.06 621.21 299.21 C 627.30 296.87 633.46 294.34 638.49 290.06 L 639.16 289.58 C 639.59 290.03 640.47 290.91 640.91 291.35 C 637.06 295.55 632.17 298.58 628.19 302.64 C 629.97 305.89 631.94 309.33 631.58 313.19 C 631.68 319.88 629.17 327.02 632.32 333.34 L 632.63 334.08 C 628.46 333.41 624.22 333.63 620.02 333.70 C 614.12 333.87 608.18 333.51 602.35 334.58 C 602.78 334.72 603.65 335.01 604.08 335.16 C 613.40 338.02 623.32 335.09 632.83 336.52 C 636.57 337.62 639.46 340.43 642.85 342.25 C 645.29 343.72 648.05 344.71 650.94 344.68 C 656.82 344.72 662.72 344.46 668.57 345.30 C 665.62 351.51 661.90 357.44 660.19 364.16 C 657.33 375.15 657.39 386.73 659.16 397.89 C 659.81 401.87 660.38 405.87 660.80 409.88 C 657.50 410.37 654.16 410.66 650.84 410.53 C 633.61 408.46 616.34 406.81 599.09 405.03 C 595.78 404.56 592.25 403.65 590.06 400.92 C 585.16 395.19 581.25 388.39 579.71 380.95 C 578.60 373.02 579.32 365.02 579.46 357.06 C 574.15 354.65 569.26 351.47 564.58 348.02 C 563.77 344.67 562.54 341.45 561.55 338.16 C 564.42 337.30 567.21 336.15 569.85 334.73 C 570.83 334.22 571.80 333.70 572.77 333.17 C 572.37 333.06 571.57 332.82 571.17 332.70 C 568.03 331.66 564.86 330.72 561.61 330.15 C 561.66 328.84 561.73 327.53 561.81 326.22 C 564.88 316.14 570.92 306.39 580.05 300.78 C 576.69 295.73 570.75 292.22 569.90 285.77 M 568.02 321.21 C 568.76 322.69 568.77 325.21 570.98 325.15 C 573.92 325.89 575.42 321.42 573.04 319.95 C 571.29 318.54 569.54 320.44 568.02 321.21 M 599.12 321.11 C 597.03 322.96 599.17 326.70 601.84 325.92 C 604.24 325.71 603.71 322.75 603.92 321.07 C 602.34 320.91 600.41 319.64 599.12 321.11 M 579.16 332.00 C 579.65 334.12 580.51 336.21 580.50 338.42 C 579.35 340.25 577.74 341.72 576.29 343.31 C 578.12 342.29 579.94 341.25 581.76 340.20 C 583.72 342.91 586.04 345.44 589.16 346.85 C 587.33 344.65 585.11 342.76 583.55 340.35 C 581.49 337.61 584.85 335.19 586.00 332.84 C 583.78 332.17 581.47 331.93 579.16 332.00 M 603.80 337.32 C 610.39 341.02 617.89 342.83 625.17 344.66 C 618.61 340.91 611.08 339.12 603.80 337.32 Z" />
<path fill="#ffc900" opacity="1.00" d=" M 668.12 371.03 C 669.22 361.59 672.29 351.66 679.99 345.49 C 680.94 345.66 681.90 345.82 682.87 346.00 C 682.95 346.50 683.05 347.01 683.15 347.52 C 695.41 348.66 707.27 357.60 710.21 369.81 C 710.51 373.81 710.25 377.83 709.93 381.83 C 704.10 379.94 697.37 375.97 691.56 380.07 C 693.97 383.68 698.30 384.85 702.07 386.50 C 700.74 390.56 697.76 393.66 694.59 396.39 C 694.17 393.35 693.97 390.28 693.38 387.28 C 693.20 385.57 691.46 384.67 689.97 384.38 C 687.27 384.70 685.57 387.15 684.52 389.42 C 681.17 396.75 680.56 404.89 679.37 412.76 C 678.20 412.74 677.04 412.72 675.89 412.69 C 673.55 409.14 671.90 405.18 670.99 401.03 C 668.73 391.24 667.13 381.11 668.12 371.03 Z" />
<path fill="#ffc900" opacity="1.00" d=" M 399.73 510.74 C 413.01 510.73 426.07 507.93 439.34 507.78 C 441.09 511.66 443.13 515.41 445.38 519.02 C 426.90 533.26 406.66 545.05 388.19 559.30 C 386.46 560.79 384.30 561.55 382.03 561.46 C 382.96 557.15 384.05 552.71 386.58 549.03 C 386.76 548.53 387.14 547.53 387.32 547.03 L 387.29 546.19 C 387.51 545.71 387.95 544.74 388.17 544.26 C 388.23 540.43 390.09 536.93 391.22 533.35 C 393.19 527.27 395.36 521.27 397.13 515.14 C 397.66 513.52 398.08 511.60 399.73 510.74 Z" />
</g>
<g id="#fddd3eff">
<path fill="#fddd3e" opacity="1.00" d=" M 639.16 289.58 C 640.63 288.80 642.18 288.15 643.82 287.77 C 644.68 288.72 645.25 289.88 645.87 291.00 C 643.10 296.20 641.33 301.99 637.59 306.63 C 635.70 309.31 632.94 311.68 632.46 315.09 C 631.63 321.13 631.64 327.28 632.32 333.34 C 629.17 327.02 631.68 319.88 631.58 313.19 C 631.94 309.33 629.97 305.89 628.19 302.64 C 632.17 298.58 637.06 295.55 640.91 291.35 C 640.47 290.91 639.59 290.03 639.16 289.58 Z" />
</g>
<g id="#b7c05bff">
<path fill="#b7c05b" opacity="1.00" d=" M 635.21 289.15 C 636.29 289.46 637.38 289.77 638.49 290.06 C 633.46 294.34 627.30 296.87 621.21 299.21 C 616.61 301.06 611.71 299.29 607.02 298.90 C 601.97 298.22 596.96 299.48 591.93 299.60 C 590.50 299.87 589.64 298.68 588.75 297.83 L 589.52 297.82 C 597.31 297.80 605.14 297.14 612.90 298.17 C 621.12 299.69 628.23 294.27 635.32 291.07 C 635.29 290.59 635.24 289.63 635.21 289.15 Z" />
</g>
<g id="#e06337ff">
<path fill="#e06337" opacity="1.00" d=" M 243.11 314.00 C 247.40 315.71 251.66 317.57 256.14 318.73 C 259.60 319.58 263.13 320.53 266.03 322.71 C 265.40 324.96 265.39 327.31 265.56 329.62 C 265.66 330.72 265.54 331.79 265.18 332.84 C 264.60 334.15 263.98 335.46 263.36 336.76 C 256.41 329.36 249.39 321.99 243.11 314.00 Z" />
<path fill="#e06337" opacity="1.00" d=" M 344.99 494.21 C 346.59 492.81 349.62 495.53 348.42 497.28 C 347.12 496.44 346.00 495.36 344.99 494.21 Z" />
</g>
<g id="#170300fa">
<path fill="#170300" opacity="0.98" d=" M 568.02 321.21 C 569.54 320.44 571.29 318.54 573.04 319.95 C 575.42 321.42 573.92 325.89 570.98 325.15 C 568.77 325.21 568.76 322.69 568.02 321.21 Z" />
<path fill="#170300" opacity="0.98" d=" M 561.26 336.15 C 564.10 335.56 566.99 335.25 569.85 334.73 C 567.21 336.15 564.42 337.30 561.55 338.16 C 560.20 338.20 558.85 338.20 557.51 338.18 C 558.74 337.46 559.98 336.77 561.26 336.15 Z" />
</g>
<g id="#150500ff">
<path fill="#150500" opacity="1.00" d=" M 599.12 321.11 C 600.41 319.64 602.34 320.91 603.92 321.07 C 603.71 322.75 604.24 325.71 601.84 325.92 C 599.17 326.70 597.03 322.96 599.12 321.11 Z" />
</g>
<g id="#acc888ff">
<path fill="#acc888" opacity="1.00" d=" M 703.69 326.61 C 708.43 325.59 713.31 325.46 718.14 325.93 C 718.09 327.20 718.03 328.47 717.95 329.75 C 716.71 328.30 715.13 326.94 713.09 327.26 C 703.95 327.71 694.84 329.85 686.46 333.52 C 679.80 336.35 674.94 341.98 668.57 345.30 C 662.72 344.46 656.82 344.72 650.94 344.68 C 648.05 344.71 645.29 343.72 642.85 342.25 C 650.86 343.42 658.98 343.81 667.06 343.38 C 670.55 343.32 673.01 340.57 675.58 338.57 C 683.43 331.75 693.68 328.64 703.69 326.61 Z" />
</g>
<g id="#ffdc3cff">
<path fill="#ffdc3c" opacity="1.00" d=" M 686.46 333.52 C 694.84 329.85 703.95 327.71 713.09 327.26 C 715.13 326.94 716.71 328.30 717.95 329.75 C 717.90 330.13 717.80 330.90 717.75 331.29 C 704.08 331.53 690.14 336.12 679.99 345.49 C 672.29 351.66 669.22 361.59 668.12 371.03 C 667.13 381.11 668.73 391.24 670.99 401.03 C 671.90 405.18 673.55 409.14 675.89 412.69 C 667.54 411.93 659.15 411.67 650.84 410.53 C 654.16 410.66 657.50 410.37 660.80 409.88 C 660.38 405.87 659.81 401.87 659.16 397.89 C 657.39 386.73 657.33 375.15 660.19 364.16 C 661.90 357.44 665.62 351.51 668.57 345.30 C 674.94 341.98 679.80 336.35 686.46 333.52 Z" />
</g>
<g id="#fefefdff">
<path fill="#fefefd" opacity="1.00" d=" M 769.02 331.00 C 770.37 332.86 771.54 334.90 772.03 337.18 C 770.92 335.17 769.92 333.10 769.02 331.00 Z" />
<path fill="#fefefd" opacity="1.00" d=" M 122.20 591.26 C 125.79 592.21 129.34 593.36 132.60 595.17 C 122.22 629.26 111.78 663.33 101.43 697.43 C 99.86 702.63 97.96 707.77 97.28 713.19 L 97.18 713.86 C 93.11 714.80 86.43 714.29 85.93 709.05 C 86.51 701.13 90.16 693.90 92.18 686.32 C 92.94 682.74 96.06 679.51 94.96 675.72 C 98.08 672.17 98.83 667.39 100.17 663.01 C 102.66 654.29 105.74 645.74 107.91 636.94 C 100.75 639.12 93.97 642.33 86.96 644.95 C 74.51 649.82 62.08 654.75 49.65 659.67 C 43.91 661.95 38.04 663.95 32.52 666.74 C 37.54 667.46 42.57 668.10 47.59 668.80 C 43.37 669.09 39.18 668.37 35.01 667.87 C 30.97 667.70 28.47 663.46 27.81 659.91 C 27.34 656.00 31.45 654.47 34.31 653.15 C 55.22 644.70 76.31 636.69 97.21 628.18 C 101.99 626.31 107.11 625.28 111.67 622.87 C 116.56 612.86 118.29 601.65 122.20 591.26 Z" />
<path fill="#fefefd" opacity="1.00" d=" M 558.09 741.15 C 580.47 741.78 602.87 741.20 625.25 741.44 C 624.05 742.41 622.51 742.49 621.04 742.47 C 600.03 742.31 579.03 742.47 558.02 742.36 L 558.09 741.15 Z" />
</g>
<g id="#f2ca24ff">
<path fill="#f2ca24" opacity="1.00" d=" M 561.19 331.85 C 564.49 332.35 567.84 332.45 571.17 332.70 C 571.57 332.82 572.37 333.06 572.77 333.17 C 571.80 333.70 570.83 334.22 569.85 334.73 C 566.99 335.25 564.10 335.56 561.26 336.15 C 561.23 334.71 561.21 333.28 561.19 331.85 Z" />
</g>
<g id="#452200ff">
<path fill="#452200" opacity="1.00" d=" M 602.35 334.58 C 608.18 333.51 614.12 333.87 620.02 333.70 C 624.22 333.63 628.46 333.41 632.63 334.08 C 633.03 334.25 633.84 334.58 634.24 334.74 C 624.19 334.94 614.13 335.20 604.08 335.16 C 603.65 335.01 602.78 334.72 602.35 334.58 Z" />
</g>
<g id="#c5b360ff">
<path fill="#c5b360" opacity="1.00" d=" M 604.08 335.16 C 614.13 335.20 624.19 334.94 634.24 334.74 C 634.61 334.90 635.35 335.20 635.71 335.35 C 638.18 337.56 640.57 339.85 642.85 342.25 C 639.46 340.43 636.57 337.62 632.83 336.52 C 623.32 335.09 613.40 338.02 604.08 335.16 Z" />
</g>
<g id="#aba28bf1">
<path fill="#aba28b" opacity="0.95" d=" M 265.57 359.31 C 266.07 353.03 261.97 347.07 263.87 340.79 C 264.00 342.91 264.13 345.03 264.26 347.15 C 268.22 347.52 272.38 347.03 276.10 348.71 C 272.84 348.29 269.55 348.24 266.27 348.20 C 266.38 350.52 266.51 352.84 266.61 355.17 C 266.83 359.84 267.38 365.20 263.93 368.93 C 259.42 374.57 251.52 374.96 244.88 374.42 C 232.22 373.63 220.58 367.08 211.69 358.30 C 207.77 354.39 203.76 350.47 200.83 345.74 L 200.81 344.83 C 205.02 344.80 209.71 345.29 213.06 342.19 C 212.63 346.57 206.91 345.48 203.83 346.55 C 206.57 352.07 211.24 356.20 215.77 360.22 C 223.71 367.10 233.65 371.74 244.11 372.95 C 249.33 373.46 255.03 373.47 259.67 370.67 C 263.55 368.31 265.42 363.71 265.57 359.31 Z" />
</g>
<g id="#4bc9beff">
<path fill="#4bc9be" opacity="1.00" d=" M 161.07 348.07 C 173.96 344.18 187.59 346.00 200.83 345.74 C 203.76 350.47 207.77 354.39 211.69 358.30 C 220.58 367.08 232.22 373.63 244.88 374.42 C 251.52 374.96 259.42 374.57 263.93 368.93 C 267.38 365.20 266.83 359.84 266.61 355.17 C 266.77 353.00 266.23 350.33 268.12 348.76 C 274.75 349.06 280.32 353.16 286.12 355.93 C 289.95 358.32 292.72 362.03 295.36 365.61 C 302.92 376.89 306.48 390.32 308.56 403.59 C 309.97 411.36 308.88 419.27 309.43 427.09 C 311.03 444.86 310.13 462.72 310.67 480.52 C 310.73 482.20 312.48 483.19 314.00 483.33 C 317.33 483.67 320.72 483.41 324.03 484.12 C 320.25 483.79 316.45 483.89 312.68 484.33 C 304.39 485.44 296.22 487.42 288.22 489.87 L 287.42 490.03 C 287.01 485.77 286.92 481.14 284.40 477.49 C 282.18 474.42 279.27 471.94 276.64 469.24 C 279.74 461.10 281.10 452.46 283.12 444.03 C 286.07 429.46 289.86 414.97 290.98 400.10 C 290.31 400.16 288.96 400.26 288.29 400.32 C 285.31 419.09 281.89 437.81 277.11 456.22 C 276.02 460.45 275.28 464.75 274.70 469.08 C 268.85 468.40 262.74 468.00 257.12 470.14 C 247.05 473.84 238.44 480.65 230.67 487.89 C 228.89 492.71 230.85 497.72 231.85 502.48 C 192.75 510.88 153.82 520.14 114.78 528.78 C 109.80 529.94 104.22 530.25 100.21 533.79 C 99.96 527.51 98.42 521.30 98.86 514.99 C 99.30 508.28 100.09 501.61 100.36 494.89 C 100.45 494.41 100.63 493.43 100.72 492.95 C 102.89 484.06 104.25 474.99 105.21 465.90 C 106.67 454.37 110.22 443.24 113.05 432.00 C 115.68 424.76 116.90 416.94 120.49 410.09 C 120.70 409.61 121.10 408.63 121.31 408.14 C 121.74 402.88 124.67 398.22 126.30 393.26 C 130.40 383.03 133.58 371.67 141.73 363.81 C 145.48 360.91 148.78 357.48 151.84 353.87 C 152.11 353.66 152.64 353.24 152.91 353.04 C 155.28 351.71 157.61 350.32 159.85 348.78 C 160.15 348.60 160.76 348.24 161.07 348.07 M 190.08 404.99 C 185.92 416.85 182.76 429.04 178.91 441.00 C 174.32 456.64 169.21 472.13 164.91 487.84 C 176.63 487.82 188.26 489.39 199.97 489.47 C 209.54 490.56 219.18 489.61 228.74 490.78 C 228.79 490.11 228.89 488.77 228.93 488.10 C 220.67 486.91 212.32 487.05 204.01 486.58 C 192.37 485.40 180.63 486.28 169.01 484.71 C 172.19 472.29 176.48 460.20 179.99 447.88 C 183.92 433.97 189.10 420.38 192.18 406.24 C 191.66 405.93 190.60 405.30 190.08 404.99 Z" />
<path fill="#4bc9be" opacity="1.00" d=" M 633.91 468.74 C 640.89 467.61 648.00 467.93 655.01 468.73 C 665.98 469.99 677.02 470.58 687.99 471.95 C 700.75 473.16 713.55 473.90 726.27 475.53 C 733.31 476.48 740.64 475.94 747.36 478.62 C 750.05 484.63 752.24 490.85 753.78 497.26 C 755.38 504.00 758.05 510.61 758.23 517.62 C 758.11 519.39 758.43 521.16 759.15 522.80 C 760.64 526.81 760.89 531.16 760.86 535.40 C 760.72 537.55 761.04 539.68 761.60 541.76 C 761.73 542.50 761.99 543.97 762.12 544.70 C 762.68 561.83 762.43 578.97 762.24 596.10 C 762.18 598.61 762.03 601.12 761.71 603.62 C 761.10 607.48 760.88 611.38 761.05 615.29 C 761.15 624.29 759.83 633.22 759.37 642.20 C 759.22 645.41 758.61 648.57 757.97 651.71 C 756.62 657.78 756.23 663.99 755.97 670.18 C 755.42 682.57 752.60 694.70 750.93 706.96 C 750.08 714.78 748.06 722.39 746.92 730.17 C 746.36 733.94 745.28 737.60 744.20 741.25 C 743.51 741.32 742.12 741.44 741.43 741.50 C 731.97 740.55 722.47 741.05 713.00 740.98 C 703.54 741.10 694.07 740.77 684.63 741.38 L 683.69 741.23 C 682.61 730.18 682.74 719.08 681.84 708.02 C 681.50 701.91 681.86 695.76 681.04 689.68 C 680.13 681.15 679.49 672.58 679.58 663.99 C 679.23 651.32 678.01 638.68 678.00 626.00 C 677.96 618.64 676.59 611.35 676.77 603.98 C 676.84 586.62 675.01 569.34 674.45 552.00 C 673.99 547.03 675.86 541.43 673.14 536.93 C 670.14 534.29 666.16 533.43 662.40 532.53 C 655.59 530.97 648.99 528.67 642.17 527.20 C 641.87 528.05 641.58 528.92 641.30 529.78 C 651.23 532.84 661.33 535.35 671.33 538.17 C 670.93 544.15 669.02 549.88 667.95 555.76 C 662.55 578.74 658.16 601.95 652.75 624.93 C 650.84 632.55 649.45 640.28 647.83 647.97 C 642.08 671.32 637.69 694.97 632.34 718.41 C 629.87 725.92 629.44 733.89 627.04 741.41 C 626.59 741.42 625.70 741.43 625.25 741.44 C 602.87 741.20 580.47 741.78 558.09 741.15 L 557.02 741.09 C 556.88 737.90 557.67 734.82 558.24 731.72 C 559.64 717.85 560.80 703.94 563.02 690.18 C 564.81 673.47 566.87 656.80 568.94 640.13 C 571.29 627.44 572.12 614.52 574.63 601.87 C 575.88 595.68 576.38 589.38 577.71 583.21 C 579.98 573.17 581.49 562.97 584.01 552.99 C 586.09 545.41 586.67 537.48 589.49 530.09 C 589.70 529.61 590.11 528.64 590.32 528.15 C 590.35 525.38 591.25 522.72 591.90 520.06 C 596.18 505.01 600.82 490.05 606.24 475.36 C 607.01 473.25 608.17 471.32 609.44 469.47 C 617.59 469.76 625.81 470.06 633.91 468.74 Z" />
</g>
<g id="#366b51ff">
<path fill="#366b51" opacity="1.00" d=" M 564.58 348.02 C 569.26 351.47 574.15 354.65 579.46 357.06 C 578.10 364.81 578.62 372.68 579.17 380.48 L 578.12 380.16 C 576.76 373.49 577.61 366.68 577.50 359.95 C 577.74 358.12 575.89 357.27 574.64 356.41 C 571.24 354.36 567.66 352.50 564.79 349.71 C 564.74 349.28 564.64 348.44 564.58 348.02 Z" />
</g>
<g id="#b3b5befd">
<path fill="#b3b5be" opacity="1.00" d=" M 749.59 388.57 C 759.79 385.36 769.80 381.48 780.20 378.97 C 779.06 379.96 777.95 380.99 776.71 381.85 C 759.60 385.93 743.23 392.59 726.36 397.51 C 726.04 399.39 725.72 401.26 725.51 403.16 C 724.98 401.19 724.48 399.20 724.00 397.22 C 732.31 393.73 741.10 391.57 749.59 388.57 Z" />
</g>
<g id="#22ada2ff">
<path fill="#22ada2" opacity="1.00" d=" M 288.29 400.32 C 288.96 400.26 290.31 400.16 290.98 400.10 C 289.86 414.97 286.07 429.46 283.12 444.03 C 281.10 452.46 279.74 461.10 276.64 469.24 C 276.16 469.20 275.19 469.12 274.70 469.08 C 275.28 464.75 276.02 460.45 277.11 456.22 C 281.89 437.81 285.31 419.09 288.29 400.32 Z" />
</g>
<g id="#23ada2ff">
<path fill="#23ada2" opacity="1.00" d=" M 190.08 404.99 C 190.60 405.30 191.66 405.93 192.18 406.24 C 189.10 420.38 183.92 433.97 179.99 447.88 C 176.48 460.20 172.19 472.29 169.01 484.71 C 180.63 486.28 192.37 485.40 204.01 486.58 C 212.32 487.05 220.67 486.91 228.93 488.10 C 228.89 488.77 228.79 490.11 228.74 490.78 C 219.18 489.61 209.54 490.56 199.97 489.47 C 188.26 489.39 176.63 487.82 164.91 487.84 C 169.21 472.13 174.32 456.64 178.91 441.00 C 182.76 429.04 185.92 416.85 190.08 404.99 Z" />
</g>
<g id="#191818ff">
<path fill="#191818" opacity="1.00" d=" M 360.92 430.63 C 365.73 429.30 370.66 431.46 375.45 432.04 L 376.46 432.24 C 370.50 436.06 364.36 439.64 357.83 442.40 C 357.94 438.48 356.55 432.76 360.92 430.63 Z" />
</g>
<g id="#161616f7">
<path fill="#161616" opacity="0.97" d=" M 403.29 441.10 C 405.78 441.03 409.36 442.28 408.40 445.43 C 407.91 448.36 404.62 447.75 402.47 447.57 C 401.98 445.34 402.19 443.11 403.29 441.10 Z" />
</g>
<g id="#181818ff">
<path fill="#181818" opacity="1.00" d=" M 444.59 443.63 C 452.52 441.66 461.05 442.52 468.06 446.87 C 468.34 447.09 468.90 447.54 469.18 447.76 C 473.04 454.35 474.69 461.86 477.11 469.03 C 479.75 477.59 482.66 486.15 487.04 494.00 C 487.30 494.48 487.81 495.44 488.06 495.91 C 489.50 498.73 491.17 501.41 492.81 504.11 L 493.12 504.79 C 493.16 507.61 493.21 510.44 493.22 513.27 C 491.59 518.85 485.66 522.04 480.28 523.10 C 477.42 523.64 474.57 524.23 471.73 524.83 L 470.91 524.96 C 462.20 525.64 451.84 525.99 445.38 519.02 C 443.13 515.41 441.09 511.66 439.34 507.78 C 439.01 506.98 438.69 506.17 438.40 505.37 C 433.26 491.28 431.71 476.10 432.26 461.19 C 432.52 453.47 438.04 447.11 444.59 443.63 Z" />
</g>
<g id="#9bb39af8">
<path fill="#9bb39a" opacity="0.97" d=" M 603.03 466.04 C 611.27 467.63 619.64 468.93 628.06 468.04 C 633.89 467.68 639.65 466.14 645.52 466.58 C 679.35 469.68 713.17 472.88 746.98 476.09 C 747.08 476.72 747.26 477.98 747.36 478.62 C 740.64 475.94 733.31 476.48 726.27 475.53 C 713.55 473.90 700.75 473.16 687.99 471.95 C 677.02 470.58 665.98 469.99 655.01 468.73 C 648.00 467.93 640.89 467.61 633.91 468.74 C 625.81 470.06 617.59 469.76 609.44 469.47 C 608.88 468.60 608.31 467.75 607.75 466.91 C 606.57 466.91 605.41 466.97 604.26 467.05 C 603.95 466.80 603.33 466.29 603.03 466.04 Z" />
</g>
<g id="#a6a58fff">
<path fill="#a6a58f" opacity="1.00" d=" M 231.85 502.48 C 230.85 497.72 228.89 492.71 230.67 487.89 C 231.28 491.42 231.58 495.04 232.59 498.50 C 232.86 500.19 234.68 500.64 235.91 501.49 C 234.55 501.81 233.20 502.13 231.85 502.48 Z" />
</g>
<g id="#4c5e79ff">
<path fill="#4c5e79" opacity="1.00" d=" M 263.18 495.14 C 271.24 493.35 279.23 491.21 287.42 490.03 L 288.22 489.87 C 280.99 493.37 272.98 494.42 265.25 496.27 C 255.27 498.51 245.29 500.71 235.33 503.04 C 234.17 502.84 233.01 502.65 231.85 502.48 C 233.20 502.13 234.55 501.81 235.91 501.49 C 244.93 499.08 254.08 497.24 263.18 495.14 Z" />
</g>
<g id="#0160a4ff">
<path fill="#0160a4" opacity="1.00" d=" M 114.78 528.78 C 153.82 520.14 192.75 510.88 231.85 502.48 C 233.01 502.65 234.17 502.84 235.33 503.04 C 230.05 504.73 224.66 506.09 219.21 507.11 C 204.45 510.16 189.87 514.01 175.14 517.14 C 164.11 518.80 153.55 522.55 142.58 524.51 C 132.17 526.46 121.94 529.28 111.58 531.50 C 108.40 532.31 104.85 532.98 102.58 535.57 C 99.82 538.71 98.06 542.57 96.38 546.37 C 93.38 553.59 90.48 560.98 89.59 568.82 C 88.58 575.63 89.69 582.47 89.97 589.29 C 86.85 582.32 87.27 574.49 88.09 567.09 C 89.63 555.22 95.13 544.46 100.21 533.79 C 104.22 530.25 109.80 529.94 114.78 528.78 Z" />
<path fill="#0160a4" opacity="1.00" d=" M 281.32 525.29 C 283.55 523.73 286.26 523.28 288.92 523.12 C 289.32 527.68 284.65 529.40 281.57 531.56 C 251.66 551.30 221.66 570.89 191.94 590.92 C 185.09 595.52 177.29 598.91 171.56 605.01 C 176.32 614.07 185.11 619.98 190.28 628.74 C 184.35 623.99 179.89 617.79 174.54 612.47 C 172.52 609.94 169.22 611.67 166.69 612.25 C 166.16 609.04 165.24 605.83 165.47 602.56 C 168.27 599.55 172.04 597.70 175.40 595.40 C 183.81 589.81 192.20 584.19 200.74 578.78 C 207.46 574.57 213.69 569.64 220.46 565.49 C 227.84 560.95 235.00 556.06 242.15 551.16 C 248.69 546.63 255.64 542.73 262.17 538.18 C 268.58 533.93 274.84 529.43 281.32 525.29 Z" />
<path fill="#0160a4" opacity="1.00" d=" M 314.86 589.79 C 318.07 587.71 321.73 586.51 325.44 585.69 C 325.98 586.81 326.53 587.94 327.09 589.08 C 331.08 590.78 335.17 592.24 339.20 593.85 C 339.64 594.20 340.52 594.90 340.97 595.25 C 341.65 596.17 342.62 596.85 343.76 597.11 C 346.64 598.02 349.05 600.04 350.66 602.57 C 351.31 603.73 352.27 604.68 353.45 605.34 C 359.15 609.41 362.60 616.16 364.25 622.84 C 365.41 630.18 365.14 637.67 363.86 644.98 C 362.74 649.98 360.75 654.90 357.74 659.06 C 357.39 659.26 356.69 659.64 356.34 659.83 L 355.83 660.02 C 361.98 648.15 366.08 633.76 361.04 620.76 C 358.45 614.85 355.28 608.86 350.13 604.78 C 343.67 599.26 336.40 594.59 328.47 591.51 C 322.32 589.24 317.03 594.29 311.91 596.88 C 294.01 606.12 276.70 616.44 258.95 625.96 C 244.71 634.15 229.89 641.31 215.87 649.88 C 213.38 651.12 210.33 653.14 207.55 651.56 C 202.35 648.41 199.94 642.24 194.80 639.02 C 189.28 640.16 184.73 644.38 178.80 644.16 C 183.60 641.27 188.68 638.89 193.55 636.12 C 193.84 635.94 194.42 635.57 194.71 635.39 C 193.70 633.42 192.54 631.53 191.28 629.72 C 198.27 634.72 203.36 641.78 210.08 647.08 C 216.41 644.79 222.08 641.12 227.99 637.97 C 246.18 628.22 263.90 617.61 282.25 608.19 C 292.89 601.64 304.24 596.37 314.86 589.79 Z" />
</g>
<g id="#e3d17afa">
<path fill="#e3d17a" opacity="0.98" d=" M 438.40 505.37 C 438.69 506.17 439.01 506.98 439.34 507.78 C 426.07 507.93 413.01 510.73 399.73 510.74 C 400.75 510.18 401.66 509.19 402.90 509.17 C 408.92 509.06 414.93 508.65 420.91 507.88 C 426.74 507.10 432.87 507.74 438.40 505.37 Z" />
</g>
<g id="#9d9491d8">
<path fill="#9d9491" opacity="0.85" d=" M 493.12 504.79 C 495.26 507.20 494.36 510.62 493.22 513.27 C 493.21 510.44 493.16 507.61 493.12 504.79 Z" />
</g>
<g id="#5c585793">
<path fill="#5c5857" opacity="0.58" d=" M 471.73 524.83 C 474.57 524.23 477.42 523.64 480.28 523.10 C 477.96 525.35 474.69 525.05 471.73 524.83 Z" />
</g>
<g id="#24ada2ff">
<path fill="#24ada2" opacity="1.00" d=" M 642.17 527.20 C 648.99 528.67 655.59 530.97 662.40 532.53 C 666.16 533.43 670.14 534.29 673.14 536.93 C 672.69 537.24 671.78 537.86 671.33 538.17 C 661.33 535.35 651.23 532.84 641.30 529.78 C 641.58 528.92 641.87 528.05 642.17 527.20 Z" />
</g>
<g id="#181717ff">
<path fill="#181717" opacity="1.00" d=" M 408.23 587.01 C 408.15 582.06 407.19 576.99 408.70 572.16 C 410.33 578.30 409.91 584.71 410.08 591.00 C 410.24 601.87 409.45 612.75 407.28 623.42 C 405.19 638.78 402.19 654.29 395.20 668.26 C 393.28 671.91 391.51 675.79 388.58 678.76 C 385.67 679.55 382.61 679.22 379.64 679.42 L 380.19 678.60 C 384.06 673.25 387.09 667.30 388.96 660.96 L 389.21 660.26 C 391.40 654.68 393.03 648.88 394.03 642.98 L 394.20 642.19 C 397.82 625.41 399.25 608.15 398.51 591.00 L 398.53 590.30 C 398.77 588.16 399.08 586.04 399.41 583.92 C 401.95 591.42 404.15 599.09 407.79 606.16 C 408.34 599.79 408.38 593.39 408.23 587.01 Z" />
<path fill="#181717" opacity="1.00" d=" M 433.04 587.04 C 438.22 579.10 448.31 575.57 457.48 576.08 C 453.77 579.09 448.49 578.18 444.32 580.27 C 436.56 583.02 431.43 590.83 431.23 598.96 C 430.62 613.69 437.03 627.53 443.51 640.39 C 446.87 647.40 451.55 653.64 455.11 660.53 C 449.40 660.80 443.68 660.52 437.97 660.62 C 431.48 660.65 424.71 663.53 421.04 669.05 C 419.03 671.97 418.84 675.61 418.52 679.03 C 414.25 679.40 409.97 679.31 405.71 679.03 C 409.02 674.58 412.77 670.46 415.69 665.74 C 416.92 664.03 417.90 661.97 419.75 660.84 C 422.81 660.31 425.91 660.02 429.01 659.67 C 428.73 656.17 428.33 652.69 427.80 649.23 C 427.50 646.36 427.65 643.46 427.91 640.60 C 433.20 646.15 437.13 652.91 442.72 658.18 C 445.59 659.37 448.94 658.60 452.00 658.78 C 442.81 643.79 433.83 628.18 430.24 610.78 C 428.71 602.88 428.48 594.03 433.04 587.04 Z" />
</g>
<g id="#24110cff">
<path fill="#24110c" opacity="1.00" d=" M 132.60 595.17 C 136.70 597.39 140.57 600.01 144.34 602.75 C 149.49 606.59 155.39 609.63 159.44 614.77 C 158.59 615.50 157.78 616.28 156.99 617.09 C 151.00 624.65 147.43 634.28 147.28 643.95 C 147.12 648.73 148.97 653.23 151.33 657.30 C 152.20 660.69 149.27 663.24 147.40 665.67 C 145.13 660.71 142.78 655.76 139.64 651.28 C 138.47 651.38 137.30 651.49 136.12 651.61 C 137.67 657.76 141.86 662.79 143.67 668.87 C 141.94 670.03 140.18 671.15 138.42 672.27 C 136.62 667.53 134.04 663.14 130.98 659.12 C 129.96 659.55 128.95 659.99 127.94 660.44 C 130.05 665.98 133.40 670.95 135.32 676.58 C 134.49 677.45 133.66 678.32 132.83 679.20 C 132.58 679.45 132.09 679.95 131.85 680.19 C 127.16 677.54 127.15 670.93 122.77 668.03 C 120.99 666.79 119.57 669.14 120.54 670.66 C 122.55 675.10 125.30 679.20 126.73 683.91 C 125.89 685.02 125.06 686.15 124.21 687.25 C 120.23 691.58 115.67 695.34 111.60 699.59 C 106.76 704.05 102.46 709.10 97.28 713.19 C 97.96 707.77 99.86 702.63 101.43 697.43 C 111.78 663.33 122.22 629.26 132.60 595.17 Z" />
</g>
<g id="#0e0d0c0e">
<path fill="#0e0d0c" opacity="0.05" d=" M 537.35 598.22 C 540.20 597.20 543.64 598.08 545.81 600.18 C 547.44 601.78 547.35 604.24 547.63 606.35 C 546.61 605.59 545.58 604.87 544.55 604.15 C 544.69 613.58 545.06 623.13 542.87 632.39 C 539.68 627.64 541.40 621.71 540.56 616.40 C 540.32 611.05 537.67 606.32 534.89 601.90 C 535.65 600.64 536.19 599.18 537.35 598.22 Z" />
</g>
<g id="#7ea19bb7">
<path fill="#7ea19b" opacity="0.72" d=" M 761.05 615.29 C 760.88 611.38 761.10 607.48 761.71 603.62 C 762.05 607.50 762.57 611.57 761.05 615.29 Z" />
</g>
<g id="#9591a0ff">
<path fill="#9591a0" opacity="1.00" d=" M 166.69 612.25 C 169.22 611.67 172.52 609.94 174.54 612.47 C 179.89 617.79 184.35 623.99 190.28 628.74 C 190.53 628.99 191.03 629.47 191.28 629.72 C 192.54 631.53 193.70 633.42 194.71 635.39 C 194.42 635.57 193.84 635.94 193.55 636.12 C 186.82 627.87 179.78 619.78 171.90 612.61 C 166.92 614.05 162.01 615.76 156.99 617.09 C 157.78 616.28 158.59 615.50 159.44 614.77 C 161.82 613.84 164.26 613.05 166.69 612.25 Z" />
</g>
<g id="#23110cff">
<path fill="#23110c" opacity="1.00" d=" M 86.96 644.95 C 93.97 642.33 100.75 639.12 107.91 636.94 C 105.74 645.74 102.66 654.29 100.17 663.01 C 98.83 667.39 98.08 672.17 94.96 675.72 C 94.32 675.48 93.03 675.00 92.39 674.76 C 91.86 674.55 90.80 674.14 90.27 673.94 C 92.84 669.25 95.24 664.37 95.98 659.01 C 94.74 658.93 93.50 658.86 92.26 658.81 C 90.35 663.92 88.35 669.06 85.18 673.56 C 83.10 673.36 81.02 673.17 78.94 672.99 C 81.00 668.46 83.03 663.91 84.52 659.16 C 84.02 658.55 83.03 657.34 82.54 656.73 C 78.15 660.89 77.61 667.41 73.88 672.09 C 67.76 671.50 61.66 670.76 55.58 669.88 L 54.75 669.72 C 52.68 669.23 50.58 668.94 48.46 668.88 L 47.59 668.80 C 42.57 668.10 37.54 667.46 32.52 666.74 C 38.04 663.95 43.91 661.95 49.65 659.67 C 62.08 654.75 74.51 649.82 86.96 644.95 Z" />
</g>
<g id="#fdfbf8ff">
<path fill="#fdfbf8" opacity="1.00" d=" M 73.88 672.09 C 77.61 667.41 78.15 660.89 82.54 656.73 C 83.03 657.34 84.02 658.55 84.52 659.16 C 83.03 663.91 81.00 668.46 78.94 672.99 C 81.02 673.17 83.10 673.36 85.18 673.56 C 88.35 669.06 90.35 663.92 92.26 658.81 C 93.50 658.86 94.74 658.93 95.98 659.01 C 95.24 664.37 92.84 669.25 90.27 673.94 C 90.80 674.14 91.86 674.55 92.39 674.76 C 81.55 674.86 70.93 672.42 60.20 671.32 C 58.57 671.15 57.07 670.48 55.58 669.88 C 61.66 670.76 67.76 671.50 73.88 672.09 Z" />
<path fill="#fdfbf8" opacity="1.00" d=" M 127.94 660.44 C 128.95 659.99 129.96 659.55 130.98 659.12 C 134.04 663.14 136.62 667.53 138.42 672.27 C 138.46 673.54 138.43 674.82 138.41 676.11 C 137.38 676.26 136.35 676.42 135.32 676.58 C 133.40 670.95 130.05 665.98 127.94 660.44 Z" />
</g>
<g id="#fdfbf9ff">
<path fill="#fdfbf9" opacity="1.00" d=" M 120.54 670.66 C 119.57 669.14 120.99 666.79 122.77 668.03 C 127.15 670.93 127.16 677.54 131.85 680.19 L 132.28 680.50 C 129.01 681.98 126.73 684.81 124.21 687.25 C 125.06 686.15 125.89 685.02 126.73 683.91 C 125.30 679.20 122.55 675.10 120.54 670.66 Z" />
</g>
<g id="#5968656d">
<path fill="#596865" opacity="0.43" d=" M 682.79 741.07 L 683.69 741.23 L 684.63 741.38 C 693.65 743.15 702.88 741.90 712.01 742.29 C 721.81 742.02 731.69 743.08 741.43 741.50 C 742.12 741.44 743.51 741.32 744.20 741.25 C 740.22 743.75 735.41 742.70 730.99 742.77 C 716.32 742.74 701.64 742.57 686.97 742.79 C 685.33 742.97 684.00 742.01 682.79 741.07 Z" />
</g>
<g id="#90e0d5f4">
<path fill="#90e0d5" opacity="0.96" d=" M 684.63 741.38 C 694.07 740.77 703.54 741.10 713.00 740.98 C 722.47 741.05 731.97 740.55 741.43 741.50 C 731.69 743.08 721.81 742.02 712.01 742.29 C 702.88 741.90 693.65 743.15 684.63 741.38 Z" />
</g>
</svg>
